<?xml version="1.0" encoding="UTF-8"?>
<svg version="1.1" xmlns="http://www.w3.org/2000/svg" width="2966" height="888">
<path d="M0 0 C1.13359967 -0.00199105 2.26719933 -0.0039821 3.4351505 -0.00603348 C5.28826296 -0.00166422 5.28826296 -0.00166422 7.17881203 0.00279331 C8.51217628 0.00235703 9.84554046 0.00148106 11.17890418 0.00020415 C14.83666585 -0.00202954 18.49439818 0.00196507 22.15215611 0.00698221 C26.09891778 0.01130267 30.04567781 0.00983915 33.99244118 0.00907993 C40.82842717 0.00855571 47.66440361 0.0116919 54.50038719 0.01731777 C64.38405869 0.02544653 74.26772557 0.02804941 84.15140004 0.02930576 C100.18720218 0.03149411 116.22299923 0.03814834 132.2587986 0.04760838 C147.83562126 0.05678809 163.41244253 0.06386619 178.98926735 0.06811619 C179.94950358 0.06837891 180.90973982 0.06864164 181.89907412 0.06891232 C186.71632125 0.07021736 191.53356839 0.07148107 196.35081553 0.07272422 C236.31152144 0.08309009 276.27221793 0.10152477 316.23291969 0.12304783 C316.23291969 23.88304783 316.23291969 47.64304783 316.23291969 72.12304783 C301.94474953 72.13706638 301.94474953 72.13706638 287.36792946 72.15136814 C256.88621864 72.18407951 226.40456951 72.23636782 195.92291025 72.30096878 C191.18778675 72.31098618 186.45266291 72.32083032 181.71753883 72.33056736 C180.30352862 72.33347942 180.30352862 72.33347942 178.86095255 72.33645031 C163.59956719 72.367467 148.33819687 72.38445004 133.07678593 72.39624205 C117.41585772 72.40865532 101.75500839 72.43616071 86.09412998 72.47766089 C76.43139029 72.50279124 66.76878142 72.51616544 57.10600858 72.5144774 C50.47887003 72.51444763 43.8518647 72.52908439 37.22477806 72.55521211 C33.40190178 72.56985225 29.57929868 72.5780661 25.75639915 72.56885052 C21.60793728 72.55901951 17.46019649 72.58009362 13.31179237 72.6040659 C12.10846829 72.59630548 10.9051442 72.58854506 9.66535574 72.58054948 C0.08564502 72.67858049 -7.17564494 74.90688575 -14.26708031 81.50586033 C-24.24920029 92.26783344 -22.05468728 108.80634489 -22.02586937 122.40844822 C-22.02858265 124.56130688 -22.03214548 126.71416462 -22.03648949 128.86702061 C-22.04557502 134.68919235 -22.04208522 140.51129289 -22.03573132 146.33346581 C-22.03065209 152.43865695 -22.03536805 158.54384216 -22.03850365 164.64903355 C-22.04213741 174.89860213 -22.03735937 185.14814184 -22.02782249 195.39770603 C-22.01693619 207.2339519 -22.0204672 219.07012888 -22.03147531 230.90637308 C-22.0405615 241.08501685 -22.04182702 251.26363992 -22.03659797 261.44228643 C-22.03348598 267.51448981 -22.03304779 273.58666084 -22.03967094 279.65886211 C-22.04546325 285.36756765 -22.04141301 291.07618463 -22.02988243 296.78488064 C-22.02724605 298.8754 -22.0279834 300.96592687 -22.03240776 303.05644321 C-22.03790503 305.91855231 -22.03097867 308.78038085 -22.02104759 311.64247227 C-22.02550904 312.46184916 -22.02997048 313.28122605 -22.03456712 314.12543255 C-21.96806954 324.06372639 -20.40315994 332.47840102 -13.76708031 340.12304783 C-6.75515661 346.64609238 -0.15362645 348.42447699 9.23920631 348.39720249 C10.13565872 348.40243917 11.03211113 348.40767585 11.95572877 348.41307122 C14.9540956 348.42805091 17.95229147 348.42877593 20.95069313 348.42944431 C23.10281601 348.43706717 25.25493616 348.44549489 27.40705299 348.45466709 C33.25016326 348.47660685 39.09322119 348.48541036 44.93636799 348.49049354 C48.58853144 348.49413782 52.2406812 348.50037828 55.89283943 348.50749493 C68.63869262 348.53198794 81.38450512 348.54504094 94.13038063 348.54858494 C106.0035336 348.55221972 117.876428 348.58211156 129.74950194 348.62398952 C139.94927917 348.65870188 150.14897073 348.67413355 160.34880662 348.67483097 C166.43794848 348.67562348 172.52682694 348.68435041 178.61590767 348.71282864 C184.34518328 348.73902501 190.07397738 348.7412053 195.8032856 348.725173 C197.9018757 348.72335977 200.00049358 348.73003775 202.09902382 348.74599171 C217.06369251 349.30935811 217.06369251 349.30935811 230.23291969 343.12304783 C250.77893317 319.81791938 239.07821334 257.49955642 239.23291969 245.12304783 C184.45291969 245.12304783 129.67291969 245.12304783 73.23291969 245.12304783 C73.23291969 221.36304783 73.23291969 197.60304783 73.23291969 173.12304783 C153.42291969 173.12304783 233.61291969 173.12304783 316.23291969 173.12304783 C316.31541969 198.30617283 316.39791969 223.48929783 316.48291969 249.43554783 C316.51933571 257.3546616 316.55575172 265.27377537 316.59327126 273.43286228 C316.61133766 283.18591404 316.61133766 283.18591404 316.6146946 287.76774693 C316.61838548 290.93286201 316.63322995 294.09770222 316.65522194 297.26274204 C316.90100079 334.29041598 311.02588172 364.81745513 284.23291969 392.12304783 C260.94011314 414.93450481 231.88539641 421.77134891 200.26416969 421.64062595 C198.02620936 421.6460607 195.78825262 421.65319088 193.55030251 421.66186619 C187.52959175 421.67994155 181.50915834 421.6730978 175.48844337 421.66034985 C169.15261082 421.65013967 162.81680017 421.65963759 156.48096657 421.66589451 C145.16724323 421.67361078 133.85365916 421.66127166 122.53996372 421.64085716 C112.32297065 421.622991 102.10615949 421.62609661 91.88916969 421.6445322 C79.96789994 421.66603355 68.04674025 421.67385597 56.12544441 421.66208315 C49.83562296 421.65588464 43.54592623 421.65491137 37.25611305 421.6682291 C31.33952458 421.67988419 25.42327565 421.67158732 19.5067234 421.64865208 C17.35064186 421.64341616 15.19453116 421.64478949 13.03846169 421.65370274 C-19.70357283 421.77645758 -47.18448381 412.26290857 -70.76708031 389.12304783 C-81.03609405 378.63734537 -88.49263974 366.29713429 -93.64208031 352.62304783 C-93.91624779 351.90109226 -94.19041527 351.1791367 -94.47289085 350.43530369 C-99.79410342 335.42323956 -100.20686061 320.88217319 -100.17113304 305.13354588 C-100.17684583 302.84529381 -100.18381357 300.55704458 -100.19193077 298.26879978 C-100.20977786 292.09301501 -100.20870961 285.91737298 -100.20298839 279.74157023 C-100.19988394 274.56805056 -100.20600297 269.39455781 -100.21202713 264.22104198 C-100.22684265 251.30990646 -100.22328247 238.3988597 -100.21116383 225.48772577 C-100.20123798 214.31691828 -100.21416827 203.14627658 -100.23809802 191.97549465 C-100.26257705 180.46008371 -100.2716771 168.94476855 -100.26544529 157.42933017 C-100.26208936 150.98241862 -100.26439955 144.53564395 -100.28169632 138.08875179 C-100.29726467 132.02203398 -100.29310085 125.95563044 -100.27439117 119.8889246 C-100.27073239 117.67598177 -100.2737335 115.46301515 -100.28427696 113.25009441 C-100.42542903 81.14710294 -90.88866823 53.34339603 -68.14208031 29.99804783 C-50.62614445 12.60081579 -25.05199578 -0.00974786 0 0 Z " fill="#253289" transform="translate(861.7670803070068,22.876952171325684)"/>
<path d="M0 0 C40.78259628 -0.06618237 81.56514177 -0.12155718 122.34777642 -0.15319599 C127.16658411 -0.15694794 131.98539169 -0.16083093 136.80419922 -0.16479492 C137.76350483 -0.16558185 138.72281044 -0.16636878 139.71118592 -0.16717956 C155.22787579 -0.18022031 170.74453219 -0.20386681 186.26120223 -0.23145839 C202.19218257 -0.25954965 218.12314542 -0.27618412 234.05414951 -0.28226548 C243.87810806 -0.28637421 253.701972 -0.29933398 263.52590142 -0.3237494 C270.2698292 -0.33965255 277.01370833 -0.34439003 283.75765349 -0.34050413 C287.64391406 -0.33858969 291.53000972 -0.34144745 295.41624069 -0.35761642 C298.98344194 -0.37234864 302.55036929 -0.37286736 306.11758386 -0.36269668 C308.00011236 -0.36085358 309.88263824 -0.37367242 311.76511872 -0.38724393 C335.94433522 -0.26160456 358.99727468 9.91620638 376 27 C395.58896998 47.85379964 401.32900059 73.39960203 401.30078125 101.32421875 C401.30468422 102.96263229 401.30902206 104.60104485 401.31376648 106.23945618 C401.32117125 109.65405573 401.32098042 113.06855181 401.31567383 116.4831543 C401.31104554 119.94389857 401.31795496 123.40429126 401.33618164 126.86499023 C401.50545535 159.28401582 400.97505146 189.30476941 378 215 C377.26136719 215.83273438 376.52273438 216.66546875 375.76171875 217.5234375 C360.543635 233.7128883 340.59173115 241.62615428 319 245 C319.32572998 245.6712793 319.65145996 246.34255859 319.98706055 247.03417969 C327.84743384 263.25125543 335.54916396 279.53248233 343.10400391 295.89453125 C346.83457755 303.97394013 350.57311427 312.04966668 354.3125 320.125 C354.91970886 321.43653549 354.91970886 321.43653549 355.53918457 322.77456665 C361.75709615 336.20151441 368.03011502 349.60150751 374.34277344 362.98413086 C379.67626301 374.29349771 384.95332704 385.62809158 390.203125 396.9765625 C391.90268602 400.64747668 393.61643277 404.31042504 395.359375 407.9609375 C395.69702881 408.67096924 396.03468262 409.38100098 396.38256836 410.11254883 C397.22575074 411.88059758 398.07539804 413.64555961 398.92578125 415.41015625 C400 418 400 418 400 421 C371.95 421 343.9 421 315 421 C295.18245125 379.16295265 295.18245125 379.16295265 285.59179688 358.43359375 C282.74049255 352.28317289 279.86934737 346.14201824 277 340 C271.95228646 329.19270697 266.92110599 318.37787139 261.90332031 307.55664062 C259.07524378 301.46037351 256.23949797 295.36781949 253.390625 289.28125 C242.67599976 266.38768051 242.67599976 266.38768051 237.625 255.25 C237.24956055 254.42822266 236.87412109 253.60644531 236.48730469 252.75976562 C234 247.23722826 234 247.23722826 234 245 C182.52 245 131.04 245 78 245 C78 303.08 78 361.16 78 421 C52.26 421 26.52 421 0 421 C0 339.16 0 257.32 0 173 C32.86916016 172.96132813 32.86916016 172.96132813 66.40234375 172.921875 C80.26107611 172.89671709 94.11979617 172.87058029 107.97851562 172.83984375 C115.25756772 172.82375164 122.53662029 172.80790817 129.81567383 172.79248047 C131.18412598 172.78956456 131.18412598 172.78956456 132.58022362 172.78658974 C147.3055702 172.75557533 162.03090119 172.73859626 176.75627428 172.72680578 C191.87027803 172.71439155 206.98420006 172.686884 222.09815222 172.64538693 C231.42308897 172.62025932 240.74789018 172.60688218 250.07286126 172.60857043 C256.46872941 172.6086002 262.86445956 172.5939594 269.26027393 172.56783572 C272.94948562 172.55319871 276.63841432 172.544979 280.32765007 172.55419731 C284.33161211 172.56403255 288.33482762 172.54294851 292.33872986 172.51898193 C293.49925352 172.52674235 294.65977717 172.53450277 295.85546821 172.54249835 C303.40740522 172.462477 310.12304162 171.55155787 315.87827629 166.27937102 C320.83320142 161.0220853 322.23877661 155.59414073 322.30639648 148.41894531 C322.32238388 147.13030579 322.33837128 145.84166626 322.35484314 144.51397705 C322.36122182 143.1186971 322.36661393 141.72341234 322.37109375 140.328125 C322.38007372 138.88091954 322.38919579 137.43371495 322.39845276 135.98651123 C322.4149035 132.95713048 322.4226354 129.9278597 322.42553711 126.8984375 C322.43091007 123.04065376 322.46856018 119.18392248 322.51428127 115.32643509 C322.5442152 112.33730417 322.5512642 109.34842143 322.55226326 106.35915375 C322.55643504 104.93833355 322.56874541 103.5175105 322.58978081 102.0968399 C322.70808195 93.41480435 322.262064 86.1927 317 79 C312.42558115 74.66998925 308.07764256 72.87914533 301.83632374 72.8613348 C300.76094815 72.85586036 299.68557256 72.85038591 298.57760984 72.84474558 C297.39182723 72.84376747 296.20604463 72.84278936 294.98432922 72.84178162 C293.72811537 72.83684364 292.47190153 72.83190566 291.17762059 72.82681805 C287.68411876 72.81321895 284.19062668 72.80581346 280.69710529 72.79939139 C276.93228502 72.79139523 273.16748509 72.77769475 269.40267944 72.76467896 C262.87767993 72.74290508 256.35267838 72.72476392 249.82766151 72.70907402 C240.39352506 72.68638369 230.95941111 72.6582397 221.52529373 72.62875474 C206.21991604 72.58106856 190.91452915 72.53780716 175.60913086 72.49731445 C160.73933191 72.45796475 145.86954114 72.41653978 130.99975586 72.37231445 C129.62542665 72.36822804 129.62542665 72.36822804 128.22333322 72.36405908 C123.62703514 72.35037969 119.03073719 72.3366594 114.4344393 72.32291877 C76.28964222 72.20893788 38.14482877 72.10294473 0 72 C0 48.24 0 24.48 0 0 Z " fill="#253289" transform="translate(2559,23)"/>
<path d="M0 0 C20.86048006 15.10261 34.50096114 35.34402099 45.43505859 58.44628906 C46.78856996 61.29295525 48.16724278 64.12683966 49.546875 66.9609375 C56.021428 80.28980844 62.31670025 93.6940793 68.5 107.16015625 C71.79280692 114.32859586 75.12564295 121.4781025 78.46484375 128.625 C78.75704803 129.25056793 79.04925232 129.87613586 79.35031128 130.5206604 C80.83575935 133.70077242 82.32156883 136.88071533 83.80761719 140.06054688 C86.44630876 145.70731077 89.08146254 151.35572553 91.71685791 157.00402832 C93.17437252 160.12775431 94.63212001 163.25137161 96.08984375 166.375 C96.6731782 167.62499948 97.25651153 168.87499948 97.83984375 170.125 C98.27296875 171.053125 98.27296875 171.053125 98.71484375 172 C101.33984374 177.62499998 101.33984374 177.62499998 102.21492004 179.50016785 C102.79799461 180.74961044 103.38107363 181.99905095 103.9641571 183.24848938 C105.4264862 186.38200069 106.88873682 189.51554857 108.35083008 192.64916992 C111.20353734 198.76300461 114.05741496 204.87628617 116.9140625 210.98828125 C122.00283691 221.87941807 127.08391265 232.77390278 132.1328125 243.68359375 C132.72247551 244.95772629 132.72247551 244.95772629 133.3240509 246.25759888 C134.13054124 248.00034245 134.93702412 249.74308947 135.74349976 251.48583984 C142.43539048 265.94611595 149.1635184 280.3880361 155.96081543 294.79907227 C161.47936296 306.49929358 166.94345359 318.22363857 172.3828125 329.9609375 C175.75192285 337.22975939 179.13793576 344.4906279 182.52734375 351.75 C182.81538879 352.36700775 183.10343384 352.9840155 183.40020752 353.61972046 C185.46302899 358.03832941 187.52639171 362.4566855 189.58984375 366.875 C191.78889905 371.58377648 193.98770723 376.29266816 196.18606567 381.00177002 C197.05602128 382.86505836 197.92631421 384.72818887 198.79663086 386.59130859 C199.86847516 388.88718149 200.93892314 391.18370691 202.0078125 393.48095703 C203.10926857 395.84398826 204.21582272 398.2041141 205.328125 400.56201172 C205.87855469 401.73650879 206.42898438 402.91100586 206.99609375 404.12109375 C207.49431641 405.17868896 207.99253906 406.23628418 208.50585938 407.32592773 C209.58984375 409.875 209.58984375 409.875 209.58984375 411.875 C181.53984375 411.875 153.48984375 411.875 124.58984375 411.875 C119.80848919 402.31229088 115.03473945 392.75869071 110.40234375 383.125 C109.85118896 381.97942627 109.30003418 380.83385254 108.73217773 379.65356445 C103.13241824 367.97806194 97.69040302 356.23099588 92.2578125 344.47705078 C89.40288298 338.3117068 86.52744651 332.15595551 83.65234375 326 C83.06589889 324.74390539 82.47947314 323.48780186 81.89306641 322.23168945 C80.12563408 318.44598218 78.35777884 314.6604725 76.58984375 310.875 C74.23530702 305.83350607 71.88100943 300.79190066 69.52734375 295.75 C69.23707306 295.12820862 68.94680237 294.50641724 68.6477356 293.86578369 C63.91196705 283.71998932 59.19402121 273.56599655 54.48193359 263.40917969 C48.79253428 251.1495306 43.07483493 238.90314258 37.35595703 226.65722656 C35.59867272 222.89416534 33.84217999 219.13073504 32.0859375 215.3671875 C31.79766083 214.74942947 31.50938416 214.13167145 31.21237183 213.49519348 C29.75120291 210.36393855 28.29012561 207.23264089 26.82910156 204.10131836 C23.97629839 197.98732771 21.12234956 191.87387861 18.265625 185.76171875 C11.890562 172.11815326 5.53756257 158.46452692 -0.7947998 144.80108643 C-2.02587199 142.14503091 -3.25755792 139.48926057 -4.48925781 136.83349609 C-8.06134197 129.12806342 -11.62555265 121.41947236 -15.1484375 113.69140625 C-15.70288339 112.47815407 -16.25740507 111.26493652 -16.81201172 110.05175781 C-17.79858859 107.89038592 -18.78104063 105.72712381 -19.75830078 103.56152344 C-23.13183936 94.85731404 -23.13183936 94.85731404 -29.66015625 89 C-30.23765625 88.95875 -30.81515625 88.9175 -31.41015625 88.875 C-36.3596348 98.37022319 -40.87418853 108.02810866 -45.22265625 117.8125 C-50.61685344 129.94547825 -56.13443739 142.01764741 -61.72265625 154.0625 C-62.12667664 154.93342285 -62.53069702 155.8043457 -62.94696045 156.70166016 C-69.12810448 170.01820635 -75.35270345 183.3141976 -81.63208008 196.5847168 C-87.64441523 209.31015054 -93.51111029 222.09373374 -99.41015625 234.875 C-72.02015625 234.875 -44.63015625 234.875 -16.41015625 234.875 C-1.48319223 265.87715604 -1.48319223 265.87715604 3.46484375 276.625 C4.53884353 278.95062197 5.6130604 281.2761437 6.6875 283.6015625 C7.1839502 284.67696289 7.68040039 285.75236328 8.19189453 286.86035156 C9.43693585 289.54525729 10.69398408 292.22381914 11.9609375 294.8984375 C12.29689941 295.6090332 12.63286133 296.31962891 12.97900391 297.05175781 C13.8218101 298.83007443 14.66851268 300.60654309 15.515625 302.3828125 C16.58984375 304.875 16.58984375 304.875 16.58984375 306.875 C-57.66015625 307.37 -57.66015625 307.37 -133.41015625 307.875 C-142.56770401 327.33478899 -151.71080916 346.79515271 -160.75537109 366.30664062 C-163.47825998 372.17824641 -166.20398072 378.04851798 -168.93597412 383.91589355 C-169.53105154 385.19465066 -170.12552117 386.47369083 -170.71929932 387.75305176 C-171.5508153 389.54446064 -172.38475899 391.33474202 -173.21875 393.125 C-173.69111084 394.14078125 -174.16347168 395.1565625 -174.65014648 396.203125 C-177.16976281 401.45975277 -179.80321928 406.66112605 -182.41015625 411.875 C-210.46015625 411.875 -238.51015625 411.875 -267.41015625 411.875 C-265.34655029 405.68418211 -263.23778201 400.04226046 -260.41796875 394.23046875 C-260.03580704 393.43146652 -259.65364532 392.63246429 -259.25990295 391.80924988 C-258.44469169 390.10610038 -257.62715794 388.40406086 -256.8074646 386.70306396 C-254.64230099 382.20945752 -252.49452961 377.70753486 -250.34375 373.20703125 C-249.91614883 372.31359009 -249.48854767 371.42014893 -249.04798889 370.49963379 C-245.51215961 363.10687294 -242.03616974 355.68851676 -238.59765625 348.25 C-238.08799316 347.14809326 -237.57833008 346.04618652 -237.05322266 344.91088867 C-236.03056956 342.69947036 -235.00810771 340.4879636 -233.98583984 338.27636719 C-231.14132707 332.13602756 -228.27459765 326.00606124 -225.41015625 319.875 C-220.89777099 310.21405662 -216.397221 300.54773894 -211.91015625 290.875 C-205.68626267 277.45936668 -199.43403891 264.05707871 -193.17626953 250.65722656 C-190.54441279 245.02134968 -187.91434746 239.38463683 -185.28414917 233.74798584 C-183.82622512 230.62362288 -182.36818479 227.49931419 -180.91015625 224.375 C-180.32682236 223.12500026 -179.74348903 221.87500026 -179.16015625 220.625 C-177.99348958 218.125 -176.82682292 215.625 -175.66015625 213.125 C-175.37141129 212.50626007 -175.08266632 211.88752014 -174.78517151 211.25003052 C-174.20178954 209.99992775 -173.61840534 208.74982603 -173.03501892 207.49972534 C-171.57741144 204.37630616 -170.11984258 201.25286897 -168.66235352 198.12939453 C-166.02873287 192.48550792 -163.39482803 186.84175483 -160.75949097 181.19866943 C-154.79659458 168.43017496 -148.84084854 155.65849647 -142.91015625 142.875 C-136.98572281 130.10499436 -131.03625652 117.34680738 -125.07894897 104.59211731 C-122.66836399 99.43013419 -120.2626175 94.26590543 -117.85787964 89.10119629 C-115.795623 84.67321131 -113.72721053 80.24813856 -111.65625 75.82421875 C-109.65215958 71.54277945 -107.66396159 67.25486904 -105.6953125 62.95703125 C-98.3472238 47.02927479 -90.10256803 32.06319779 -78.41015625 18.875 C-77.70503906 18.02679688 -76.99992187 17.17859375 -76.2734375 16.3046875 C-56.93866291 -6.39718428 -26.62254005 -17.25934525 0 0 Z " fill="#253289" transform="translate(2082.41015625,32.125)"/>
<path d="M0 0 C37.57192438 -0.06883037 75.14383918 -0.12161185 112.71581397 -0.15319599 C117.16251215 -0.15694762 121.60921021 -0.16083063 126.0559082 -0.16479492 C127.3836633 -0.16597532 127.3836633 -0.16597532 128.73824172 -0.16717956 C143.02667966 -0.18019474 157.31508098 -0.20382689 171.60349727 -0.23145839 C186.29037722 -0.25962126 200.97723814 -0.27619913 215.66414398 -0.28226548 C224.70959535 -0.28635949 233.75494318 -0.29923792 242.80036264 -0.3237494 C249.02294168 -0.33974133 255.24546806 -0.34437033 261.4680661 -0.34050413 C265.04558194 -0.33860324 268.6229183 -0.34128752 272.20040131 -0.35761642 C292.77850718 -0.44686111 313.12612735 0.39520574 333.125 5.6875 C334.10597656 5.94096191 335.08695312 6.19442383 336.09765625 6.45556641 C352.17207931 10.76638739 367.37842476 17.09539341 382 25 C382.5986084 25.31936523 383.1972168 25.63873047 383.81396484 25.96777344 C424.09604428 47.5964724 454.77690566 82.88393711 474 124 C474.52078125 125.08925781 475.0415625 126.17851562 475.578125 127.30078125 C483.6123417 144.95491531 488.21916826 163.86400656 491 183 C491.103125 183.66265869 491.20625 184.32531738 491.3125 185.00805664 C492.41793401 193.17148941 492.24396329 201.46458432 492.25 209.6875 C492.25067474 210.51224823 492.25134949 211.33699646 492.25204468 212.18673706 C492.23499494 225.32443676 491.66629082 238.09515245 489 251 C488.82839355 251.83160645 488.65678711 252.66321289 488.47998047 253.52001953 C480.43493994 291.01321556 462.91512099 325.51319088 436.47265625 353.3515625 C434.70318605 355.24682442 433.04378411 357.13127883 431.40625 359.1328125 C429.4936326 361.4118079 427.69086142 363.33439074 425.4375 365.25 C424.74914062 365.83523438 424.06078125 366.42046875 423.3515625 367.0234375 C422.57554687 367.67570312 421.79953125 368.32796875 421 369 C420.10023438 369.77601563 419.20046875 370.55203125 418.2734375 371.3515625 C389.28669853 396.05530046 353.73148744 413.08475011 316 419 C314.54779556 419.24905499 314.54779556 419.24905499 313.06625366 419.5031414 C299.68649511 421.51140228 286.27973737 421.27249916 272.78005314 421.23213124 C269.11022558 421.22340063 265.44040389 421.22642362 261.77056885 421.22793579 C255.43020932 421.22897864 249.08989132 421.22276533 242.74954224 421.21146011 C233.58274894 421.19512593 224.4159755 421.18998905 215.24916923 421.18748413 C200.37248168 421.18311938 185.49581621 421.16984356 170.61914062 421.15087891 C156.17773549 421.13248841 141.73633637 421.11834746 127.29492188 421.10986328 C126.40302678 421.10933783 125.51113168 421.10881239 124.59220946 421.10827102 C120.11731827 421.10566072 115.64242704 421.10313336 111.16753578 421.10064721 C74.11167494 421.07995273 37.0558392 421.04476065 0 421 C-0.2823171 414.31564363 -0.47291308 407.63285673 -0.60424805 400.94384766 C-0.65907098 398.67601099 -0.73376386 396.40855388 -0.82983398 394.14208984 C-1.45114901 379.09098264 -0.53473082 369.0190509 9.68528748 357.51219654 C11.52955414 355.39090111 13.08173121 353.09848983 14.64453125 350.765625 C15.69980824 349.25991699 16.75579313 347.75470486 17.8125 346.25 C19.0039381 344.55080358 20.19534337 342.85158415 21.38671875 341.15234375 C21.98274902 340.30269043 22.5787793 339.45303711 23.19287109 338.57763672 C25.58523633 335.16523573 27.97319303 331.7497613 30.36108398 328.33422852 C32.10108834 325.84668457 33.84326995 323.36067874 35.5859375 320.875 C37.89004608 317.58831507 40.18570722 314.29593408 42.4765625 311 C43.56758424 309.43741335 44.65872468 307.87490957 45.75 306.3125 C46.25160645 305.58716064 46.75321289 304.86182129 47.27001953 304.11450195 C50.77334215 299.11332892 50.77334215 299.11332892 53 298 C53 322.75 53 347.5 53 373 C83.34457949 372.93846154 113.68906745 372.8662735 144.03355522 372.77101372 C147.62661785 372.75974731 151.21968087 372.74860858 154.81274414 372.73754883 C155.8855886 372.7342433 155.8855886 372.7342433 156.98010669 372.730871 C168.51835813 372.69562419 180.05660951 372.67068916 191.59489461 372.64965298 C203.45903885 372.62778985 215.32311404 372.59464119 227.18719941 372.55129844 C233.84061944 372.52730795 240.493984 372.50867357 247.1474514 372.50238609 C253.42571986 372.49628784 259.70379447 372.47611902 265.98199081 372.44572449 C268.27105037 372.4370196 270.56013533 372.43320576 272.84921074 372.43499184 C290.71008677 372.44451732 308.61802249 371.52413465 325.8125 366.25 C326.67375488 365.99395996 327.53500977 365.73791992 328.42236328 365.47412109 C336.59150116 362.96391555 344.33805137 359.76931273 352 356 C352.94649414 355.54004639 352.94649414 355.54004639 353.91210938 355.07080078 C391.15043977 336.76480197 420.07669388 303.9545739 434.11938477 264.921875 C447.97353852 223.87025445 446.2723541 179.19233992 427.07519531 140.13330078 C421.63811085 129.34555237 415.64855992 119.39855043 408 110 C407.54222168 109.43539062 407.08444336 108.87078125 406.61279297 108.2890625 C379.35891653 74.90283606 340.22203899 54.09677931 297.39053535 49.4759531 C292.15868424 48.96305112 286.9780026 48.84748637 281.72409058 48.84178162 C280.73957731 48.83684364 279.75506405 48.83190566 278.74071705 48.82681805 C275.46891059 48.81156063 272.19712357 48.80311458 268.92529297 48.79467773 C266.56916638 48.78508995 264.21304148 48.77507935 261.85691833 48.76467896 C255.47962556 48.73772139 249.10232546 48.71666246 242.72500753 48.69667697 C236.72976548 48.67698312 230.73454194 48.65285466 224.73931636 48.62875474 C212.8708197 48.58118872 201.00231151 48.53789506 189.13378906 48.49731445 C177.61001692 48.4579034 166.086255 48.41646389 154.5625 48.37231445 C153.85123529 48.36959018 153.13997058 48.36686591 152.4071524 48.36405908 C148.83866559 48.35037868 145.27017893 48.33665859 141.70169234 48.32291877 C112.13448252 48.20912681 82.5672495 48.10307143 53 48 C53 72.75 53 97.5 53 123 C47.37641723 117.37641723 47.37641723 117.37641723 44.94140625 113.83984375 C44.39806641 113.05673828 43.85472656 112.27363281 43.29492188 111.46679688 C42.72322266 110.63212891 42.15152344 109.79746094 41.5625 108.9375 C40.3139375 107.13402083 39.0652357 105.33063808 37.81640625 103.52734375 C37.18234863 102.60808105 36.54829102 101.68881836 35.89501953 100.74169922 C32.94980269 96.48058287 29.97418872 92.24091834 27 88 C25.84361924 86.34774776 24.68736988 84.69540354 23.53125 83.04296875 C21.09650354 79.56446773 18.65854842 76.08824055 16.21875 72.61328125 C15.59613281 71.72576172 14.97351562 70.83824219 14.33203125 69.92382812 C13.15319335 68.24354425 11.97356909 66.56381164 10.79296875 64.88476562 C10.25285156 64.11455078 9.71273438 63.34433594 9.15625 62.55078125 C8.69025391 61.88731689 8.22425781 61.22385254 7.74414062 60.5402832 C7.16857422 59.70198975 6.59300781 58.86369629 6 58 C5.51746513 57.40299884 5.03493027 56.80599768 4.53777313 56.19090557 C-0.20911104 49.92676531 -0.81915167 45.12423542 -0.5859375 37.40234375 C-0.57744781 36.32747208 -0.56895813 35.2526004 -0.56021118 34.14515686 C-0.526859 30.74154694 -0.45161004 27.34038313 -0.375 23.9375 C-0.34487708 21.61787297 -0.31750538 19.29820847 -0.29296875 16.97851562 C-0.22712787 11.31818819 -0.12696324 5.6592689 0 0 Z " fill="#C4161C" transform="translate(1,23)"/>
<path d="M0 0 C0.71469277 5.07165754 1.42670501 10.14368142 2.13623047 15.21606445 C2.37800549 16.94175395 2.62051404 18.66734084 2.86376953 20.39282227 C3.21319157 22.87229256 3.55997828 25.35211928 3.90625 27.83203125 C4.07030334 28.98998955 4.07030334 28.98998955 4.2376709 30.17134094 C4.65034057 33.14162846 5 35.99699529 5 39 C-9.16161335 44.74819924 -23.41446928 50.20192739 -37.75 55.5 C-39.73055562 56.23414068 -41.71102477 56.9685147 -43.69140625 57.703125 C-48.4599507 59.47142585 -53.22963375 61.23662006 -58 63 C-51.40763578 70.69881276 -44.77557652 78.31980731 -37.8125 85.6875 C-36.49049939 87.09208469 -35.16888984 88.49703754 -33.84765625 89.90234375 C-33.19812988 90.59312012 -32.54860352 91.28389648 -31.87939453 91.99560547 C-23.96945789 100.43163819 -16.17664826 108.97795645 -8.36767578 117.50732422 C-6.97420848 119.02814876 -5.57912249 120.54747324 -4.18359375 122.06640625 C-3.24737592 123.08591921 -2.31117791 124.10545038 -1.375 125.125 C-0.91528809 125.62523682 -0.45557617 126.12547363 0.01806641 126.64086914 C2.85551985 129.73392622 5.65301723 132.85930412 8.4375 136 C9.95252996 137.67194378 11.47379848 139.33824769 13 141 C13.46019531 141.5062793 13.92039062 142.01255859 14.39453125 142.53417969 C24.20100574 153.22685932 33.51126751 158.3053199 48.23623657 159.12438965 C53.58363202 159.30729331 58.92969809 159.32816754 64.27978516 159.31567383 C67.12571026 159.31249921 69.97060791 159.33608986 72.81640625 159.36132812 C74.65104037 159.36360042 76.48567725 159.36430494 78.3203125 159.36328125 C79.15805206 159.372491 79.99579163 159.38170074 80.85891724 159.39118958 C87.88623973 159.33679363 94.37183604 158.61138845 99.52441406 153.49169922 C101.57163503 148.64733221 101.60295278 144.34475712 101.609375 139.1328125 C101.62591125 138.09808807 101.64244751 137.06336365 101.65948486 135.99728394 C101.7079017 132.70646185 101.72932242 129.41610171 101.75 126.125 C101.77816486 123.88799767 101.80809301 121.6510168 101.83984375 119.4140625 C101.91696522 113.94249711 101.95754552 108.47238262 102 103 C112.89 103 123.78 103 135 103 C135.02578125 106.3 135.0515625 109.6 135.078125 113 C135.11659255 116.21378934 135.16173775 119.42742079 135.20751953 122.64111328 C135.23565772 124.86597086 135.25690765 127.09092707 135.27099609 129.31591797 C135.29252432 132.52362303 135.33922678 135.73015103 135.390625 138.9375 C135.39246796 140.41766602 135.39246796 140.41766602 135.39434814 141.92773438 C135.52240975 148.03492548 136.36557283 152.95779762 140 158 C146.4130653 163.10427646 152.04141346 163.64805633 160 163 C164.1610986 161.46696367 165.53935571 160.69096643 168 157 C168.3280304 154.51562053 168.3280304 154.51562053 168.31884766 151.70239258 C168.33871735 150.62149857 168.35858704 149.54060455 168.37905884 148.42695618 C168.39061005 147.26125595 168.40216125 146.09555573 168.4140625 144.89453125 C168.43342865 143.70018967 168.4527948 142.50584808 168.4727478 141.27531433 C168.53260616 137.45444924 168.57895454 133.63355413 168.625 129.8125 C168.66317397 127.22459612 168.70222535 124.63670501 168.7421875 122.04882812 C168.8399668 115.69928464 168.91948767 109.34988007 169 103 C180.22 103 191.44 103 203 103 C203.02578125 106.46757813 203.0515625 109.93515625 203.078125 113.5078125 C203.11655992 116.87377978 203.16171569 120.23959463 203.20751953 123.60546875 C203.23570929 125.94100645 203.2569337 128.2766392 203.27099609 130.61230469 C203.29245246 133.97380159 203.33911906 137.33415807 203.390625 140.6953125 C203.39246796 142.25658371 203.39246796 142.25658371 203.39434814 143.84939575 C203.51581858 149.88985115 204.04507314 153.35951476 208 158 C208.45375 158.5775 208.9075 159.155 209.375 159.75 C214.69443743 163.84187495 221.60700416 163.63550552 228 163 C232.36936489 161.48130027 232.36936489 161.48130027 235 158 C235.11931048 156.24409123 235.17719868 154.48385393 235.20532227 152.72412109 C235.22526749 151.6231308 235.24521271 150.5221405 235.26576233 149.38778687 C235.28247482 148.19505157 235.29918732 147.00231628 235.31640625 145.7734375 C235.3475779 143.94650864 235.3475779 143.94650864 235.37937927 142.08267212 C235.44492584 138.1801738 235.50378355 134.2776065 235.5625 130.375 C235.60568035 127.73436778 235.64929448 125.09374261 235.69335938 122.453125 C235.80143113 115.96881976 235.90046707 109.4844645 236 103 C247.22 103 258.44 103 270 103 C270.01417969 106.47917969 270.02835938 109.95835937 270.04296875 113.54296875 C270.07358937 116.91554452 270.11267832 120.28792328 270.15258789 123.66040039 C270.17577332 126.00277735 270.19016486 128.34525864 270.19555664 130.68774414 C270.20484176 134.05681416 270.2458257 137.42424191 270.29296875 140.79296875 C270.28706978 142.36198189 270.28706978 142.36198189 270.28105164 143.96269226 C270.36932168 148.36938334 270.54878101 151.22656067 272.79418945 155.07543945 C281.44150613 160.26672704 292.7180399 159.30778024 302.48828125 159.30078125 C303.8444176 159.30468118 305.20055276 159.30901845 306.5566864 159.31376648 C309.37450152 159.32116049 312.19219114 159.3209849 315.01000977 159.31567383 C318.60535051 159.30984736 322.2001814 159.32691893 325.79543781 159.3500185 C328.58626765 159.36479389 331.37697512 159.3656231 334.16783714 159.36250877 C336.13252917 159.36326461 338.09720237 159.37708022 340.06184387 159.39118958 C348.98641713 159.42163962 348.98641713 159.42163962 357 156 C358.69675544 152.61277847 359.25925966 149.79009808 359.31884766 146.02612305 C359.33871735 145.06550461 359.35858704 144.10488617 359.37905884 143.11515808 C359.39061005 142.0910231 359.40216125 141.06688812 359.4140625 140.01171875 C359.43342865 138.95338333 359.4527948 137.89504791 359.4727478 136.80464172 C359.53241248 133.43234252 359.57887693 130.06000894 359.625 126.6875 C359.66319181 124.39777177 359.70224424 122.10805772 359.7421875 119.81835938 C359.83971927 114.21231437 359.91939319 108.60641608 360 103 C371.22 103 382.44 103 394 103 C394.0842988 110.33165435 394.16438368 117.66151435 394.20700073 124.99323273 C394.22796853 128.40870785 394.25590042 131.82377435 394.30175781 135.23901367 C394.35424748 139.1736121 394.3730748 143.10805409 394.390625 147.04296875 C394.41127014 148.24455124 394.43191528 149.44613373 394.45318604 150.68412781 C394.45700885 165.36454619 389.85347437 177.99181318 379.8125 188.75 C372.03778126 196.18210402 363.87009193 200.10145613 353.19042969 200.16113281 C352.51328918 200.16609772 351.83614868 200.17106262 351.13848877 200.17617798 C348.89960703 200.19076837 346.66079648 200.19760155 344.421875 200.203125 C343.26581631 200.20736607 343.26581631 200.20736607 342.08640289 200.21169281 C337.99607502 200.22668417 333.90578231 200.23590994 329.81542969 200.24023438 C325.63339309 200.24567396 321.45168955 200.26960504 317.26975632 200.29820633 C314.01962427 200.31705218 310.7695683 200.32205012 307.51938629 200.32357025 C305.98074807 200.32655559 304.44210981 200.33444043 302.90352631 200.34775543 C274.42060203 200.57635631 274.42060203 200.57635631 264.69921875 191.5234375 C262.96841696 189.76845272 262.96841696 189.76845272 260 189 C259.38125 189.86625 258.7625 190.7325 258.125 191.625 C252.2286897 198.69387201 243.44959153 202.48835713 234.421875 203.3359375 C218.94830082 203.50054999 206.8766054 197.84678557 195 188 C191.8587838 189.44924293 189.26114105 191.23704231 186.5 193.3125 C174.35675858 201.92970391 161.59561939 204.26394344 147 203 C139.36250181 201.38968412 133.20304973 197.60153507 127 193 C126.22914063 192.4328125 125.45828125 191.865625 124.6640625 191.28125 C122.7646341 189.86834186 120.87710969 188.44235677 119 187 C118.40574219 187.45890625 117.81148437 187.9178125 117.19921875 188.390625 C101.41577964 200.07478832 83.66787264 200.36125157 64.74804688 200.31567383 C62.00350511 200.31250405 59.26003538 200.33610737 56.515625 200.36132812 C42.96796166 200.4122546 29.64466454 199.81748535 17.5 193.125 C16.86320313 192.79886719 16.22640625 192.47273437 15.5703125 192.13671875 C11.09033779 189.78701773 7.06482675 187.00671463 3 184 C2.29875 184.721875 1.5975 185.44375 0.875 186.1875 C-9.58053527 196.55517363 -19.9000476 200.31797993 -34.56445312 200.2746582 C-35.92997818 200.2823246 -35.92997818 200.2823246 -37.3230896 200.29014587 C-40.30921151 200.30395406 -43.2951001 200.30309068 -46.28125 200.30078125 C-48.38000573 200.30467505 -50.47876069 200.30901111 -52.57751465 200.31376648 C-56.97194981 200.32121144 -61.36630463 200.32095143 -65.76074219 200.31567383 C-71.34713753 200.3099038 -76.93319866 200.32675892 -82.51953888 200.3500185 C-86.85573193 200.36487584 -91.19184691 200.36561099 -95.52806091 200.36250877 C-97.58500323 200.36301672 -99.64195054 200.3681535 -101.6988678 200.37832069 C-122.58306264 200.46883468 -144.72818108 199.52238551 -160.7109375 184.37890625 C-167.28552604 177.43549933 -169.12833715 168.22941375 -169.12025452 158.89396667 C-169.12162918 157.66704102 -169.12300385 156.44011536 -169.12442017 155.17601013 C-169.12088152 153.82461523 -169.11724672 152.47322058 -169.11352539 151.12182617 C-169.11324318 149.69253542 -169.11340191 148.26324452 -169.1139679 146.83395386 C-169.11425456 142.9603938 -169.10837888 139.08686477 -169.10139394 135.21331191 C-169.09513872 131.16274279 -169.09455488 127.11217294 -169.09336853 123.06159973 C-169.09026161 115.39420247 -169.08205683 107.72681949 -169.07201904 100.05942851 C-169.06083806 91.32912997 -169.05534245 82.59883074 -169.05032361 73.86852682 C-169.03987369 55.91234148 -169.02153615 37.9561757 -169 20 C-158.11 20 -147.22 20 -136 20 C-135.970271 25.44935059 -135.970271 25.44935059 -135.93994141 31.00878906 C-135.87290524 43.03883183 -135.79536479 55.06878563 -135.71247292 67.09872818 C-135.66249152 74.38936547 -135.61604782 81.67999232 -135.578125 88.97070312 C-135.5450369 95.33016737 -135.50511481 101.68954702 -135.45720994 108.04891753 C-135.4321107 111.41173708 -135.41130209 114.77444575 -135.39665604 118.13733673 C-135.3796681 121.9045051 -135.35060308 125.67140757 -135.31884766 129.43847656 C-135.31668747 130.53612335 -135.31452728 131.63377014 -135.31230164 132.76467896 C-135.38329133 145.46477577 -135.38329133 145.46477577 -131 157 C-120.6173777 160.20410292 -108.76123272 159.29265709 -98.0234375 159.265625 C-96.12106273 159.26697493 -94.2186883 159.26891819 -92.3163147 159.27142334 C-88.35781523 159.274352 -84.39940677 159.27014548 -80.44091797 159.26074219 C-75.36449251 159.2492705 -70.28827678 159.25596975 -65.21185875 159.26788712 C-61.29658412 159.27510048 -57.38135963 159.27282155 -53.46608353 159.26763153 C-51.59295247 159.26629762 -49.71981687 159.26793372 -47.84669113 159.27259064 C-45.24060636 159.27765574 -42.6348675 159.2699495 -40.02880859 159.25878906 C-39.25585449 159.26283752 -38.48290039 159.26688599 -37.68652344 159.27105713 C-33.91485591 159.24105395 -32.21852662 159.14568441 -29 157 C-28.32654711 154.14451999 -28.32654711 154.14451999 -29 151 C-31.14373416 148.16621086 -31.14373416 148.16621086 -34.0625 145.625 C-37.37514433 142.50650333 -40.62437371 139.41946217 -43.5625 135.9375 C-46.23596826 132.80242571 -49.06881809 129.89591958 -52 127 C-54.93118191 124.10408042 -57.76403174 121.19757429 -60.4375 118.0625 C-63.30172374 114.71074881 -66.36334469 111.59443922 -69.5 108.5 C-72.59491872 105.44662382 -75.61934297 102.37676292 -78.4375 99.0625 C-81.94829495 94.93965363 -85.77699197 91.16587705 -89.65014648 87.38696289 C-91.11962764 85.94264657 -92.56289873 84.47648409 -94 83 C-95.35351562 81.61748047 -95.35351562 81.61748047 -96.734375 80.20703125 C-99.60895622 76.13801198 -100.32354753 72.66081598 -101.125 67.8125 C-101.28258789 66.94915039 -101.44017578 66.08580078 -101.60253906 65.19628906 C-102.09243535 62.46771522 -102.55091269 59.73556945 -103 57 C-103.22864746 55.62110596 -103.22864746 55.62110596 -103.46191406 54.21435547 C-104.34972659 48.81557322 -105.19198202 43.41127193 -106 38 C-98.03316962 34.59651767 -90.011675 31.47865066 -81.84375 28.59375 C-80.71373566 28.19154236 -79.58372131 27.78933472 -78.41946411 27.37493896 C-74.78067816 26.08035801 -71.14036978 24.7901197 -67.5 23.5 C-62.4760868 21.71487806 -57.45288251 19.92776669 -52.4296875 18.140625 C-51.19245941 17.70079285 -49.95523132 17.26096069 -48.68051147 16.80780029 C-41.23949033 14.16052756 -33.80620744 11.49317232 -26.3828125 8.796875 C-25.52874817 8.48685547 -24.67468384 8.17683594 -23.79473877 7.85742188 C-19.90648876 6.44507603 -16.01977986 5.02864261 -12.13476562 3.60742188 C-10.79039969 3.11839307 -9.44600096 2.62945439 -8.1015625 2.140625 C-6.38960693 1.51462402 -6.38960693 1.51462402 -4.64306641 0.87597656 C-2 0 -2 0 0 0 Z " fill="#6D6E70" transform="translate(578,621)"/>
<path d="M0 0 C1.15250899 -0.00199105 2.30501798 -0.0039821 3.49245149 -0.00603348 C4.75411832 -0.00312064 6.01578516 -0.0002078 7.31568432 0.00279331 C8.67293432 0.00235718 10.03018424 0.0014815 11.38743371 0.00020415 C15.11586394 -0.00203254 18.84426546 0.0019692 22.57269204 0.00698221 C26.59377328 0.01129835 30.61485288 0.00983945 34.63593578 0.00907993 C41.60235319 0.00855544 48.56876123 0.01169448 55.53517628 0.01731777 C65.6074583 0.02544283 75.67973579 0.02804903 85.75202074 0.02930576 C102.0934095 0.0314947 118.43479327 0.0381505 134.77617931 0.04760838 C150.65085354 0.05678658 166.52552641 0.06386542 182.40020275 0.06811619 C183.86783415 0.06851027 183.86783415 0.06851027 185.36511467 0.06891232 C190.27353686 0.07021735 195.18195906 0.07148106 200.09038126 0.07272422 C240.81434637 0.0830919 281.53830225 0.10152756 322.2622633 0.12304783 C322.2622633 23.88304783 322.2622633 47.64304783 322.2622633 72.12304783 C309.84496593 72.12921116 309.84496593 72.12921116 297.17681408 72.135499 C270.67542373 72.15216454 244.17412572 72.19334177 217.67279226 72.24990345 C213.55482987 72.25866997 209.43686705 72.26721982 205.31890392 72.27563572 C204.08920999 72.27815431 204.08920999 72.27815431 202.83467375 72.28072379 C189.56887746 72.30737765 176.30312438 72.31648771 163.03730406 72.31908926 C149.42054599 72.32215108 135.80391266 72.34412424 122.18721092 72.3835724 C113.78812777 72.40731128 105.38929378 72.4163824 96.99018173 72.40656094 C91.22688724 72.40123618 85.46381555 72.41431723 79.70058449 72.44171073 C76.37762958 72.45696669 73.05558795 72.46152821 69.73255634 72.44964504 C66.12282604 72.43801567 62.51449381 72.45715626 58.90487194 72.48381138 C57.34354839 72.46780149 57.34354839 72.46780149 55.75068295 72.45146817 C48.15246406 72.55589146 41.03060443 74.26011616 35.54992974 79.87836331 C31.1341554 85.43272203 30.01752044 91.91069523 29.9837904 98.88719273 C29.977998 99.53020787 29.97220559 100.17322301 29.96623766 100.83572346 C29.94936124 102.96988058 29.94637198 105.10381984 29.94341564 107.23803806 C29.9341089 108.77600216 29.92393912 110.31396124 29.91297436 111.85191441 C29.88574436 116.01251361 29.87054577 120.17307908 29.85754633 124.33374381 C29.84188508 128.68730286 29.81510443 133.04079335 29.7895155 137.39430332 C29.74278065 145.63179834 29.70601095 153.86930634 29.67284262 162.10686594 C29.62742591 173.24287076 29.5665726 184.3787906 29.50659466 195.51472473 C29.41255179 213.05078978 29.3390965 230.58687938 29.2622633 248.12304783 C3.5222633 248.12304783 -22.2177367 248.12304783 -48.7377367 248.12304783 C-48.78293658 222.40118829 -48.81975676 196.67936106 -48.84136105 170.95747185 C-48.85166027 159.01354453 -48.86569468 147.06964369 -48.88861561 135.12573338 C-48.90859097 124.71174084 -48.92146298 114.2977675 -48.92591369 103.88375634 C-48.92851405 98.37298912 -48.93459774 92.86227679 -48.94919682 87.35152721 C-48.96284629 82.15677616 -48.96694453 76.96210222 -48.96395206 71.76733494 C-48.96449895 69.86836102 -48.96843225 67.96938432 -48.97614765 66.07042599 C-49.05328344 46.09294804 -47.66860472 29.61366027 -33.7377367 14.12304783 C-24.3717982 5.64042389 -12.74317722 -0.00486567 0 0 Z " fill="#253289" transform="translate(1493.7377367019653,195.87695217132568)"/>
<path d="M0 0 C27.92110422 -0.04678261 55.84220253 -0.08201951 83.76333809 -0.10362434 C96.72846921 -0.1139238 109.69357594 -0.12795868 122.65869141 -0.15087891 C133.9630087 -0.17085354 145.26730831 -0.1837261 156.57164276 -0.18817699 C162.55360406 -0.19077747 168.53551481 -0.19686196 174.51745987 -0.21146011 C180.15625216 -0.22510841 185.79497343 -0.22920806 191.43378067 -0.22621536 C193.4952025 -0.2267623 195.55662689 -0.2306963 197.61803436 -0.23841095 C230.37297008 -0.35490559 258.06709517 7.7381112 282 31 C302.54021158 51.47777932 312.24653734 78.13611489 312.3190918 106.85961914 C311.90713465 136.15641687 299.0010564 161.50399892 278.50170898 181.79492188 C255.64093746 203.79431481 227.0702529 209.34012488 196.51245117 209.22705078 C194.36277776 209.22648575 192.21310397 209.22680502 190.06343079 209.22793579 C184.2626984 209.22850671 178.4620497 209.21679475 172.66133666 209.20278788 C166.58618459 209.1902369 160.51103034 209.18910658 154.43586731 209.18673706 C142.94734207 209.18053509 131.45885516 209.16414169 119.97034675 209.14403808 C106.88444713 209.12163907 93.79854562 209.1106756 80.71263158 209.10064721 C53.80839986 209.07977428 26.90420208 209.04462335 0 209 C-0.36088184 202.38956129 -0.60247072 195.78172761 -0.76904297 189.16357422 C-0.83859947 186.92270103 -0.93349416 184.68244224 -1.05615234 182.44384766 C-1.97096793 165.2929773 1.03397224 155.27902976 12.20751953 142.16094971 C15.07466688 138.70442043 17.58265038 135.01030044 20.125 131.3125 C21.09177423 129.94391467 22.06027744 128.57654744 23.03125 127.2109375 C25.15517398 124.20868839 27.2545203 121.19055056 29.34375 118.1640625 C29.89272949 117.37346436 30.44170898 116.58286621 31.00732422 115.76831055 C32.06645534 114.24227299 33.12038163 112.7126067 34.16845703 111.17895508 C35.39566033 109.41675804 36.69152555 107.70272164 38 106 C38.66 106 39.32 106 40 106 C40 124.15 40 142.3 40 161 C62.18431799 160.93702579 84.36848443 160.86176122 106.55267525 160.76428509 C116.85427957 160.7194107 127.15584996 160.67997693 137.45751953 160.65356445 C146.44144194 160.63051651 155.42525624 160.5970431 164.40909278 160.55129844 C169.16143806 160.52745754 173.91367686 160.50866913 178.66608047 160.50238609 C183.14932614 160.49629365 187.6322997 160.47614557 192.11544418 160.44572449 C193.75112765 160.43701039 195.38684678 160.43320774 197.02255249 160.43499184 C216.15673379 160.44925835 233.87678173 157.10006546 248 143 C258.21387218 130.84451314 264.28701469 116.11151729 263 100 C260.92047079 85.26706423 255.56484553 74.43395363 245 64 C244.17048828 63.13761719 244.17048828 63.13761719 243.32421875 62.2578125 C232.57968725 51.96652427 216.91554799 48.91598287 202.58410645 48.84178162 C201.88306715 48.83684364 201.18202785 48.83190566 200.45974493 48.82681805 C198.13527482 48.8115882 195.810832 48.80312229 193.48632812 48.79467773 C191.81029017 48.78508776 190.13425457 48.77507704 188.45822144 48.76467896 C183.92579705 48.73774503 179.39336237 48.71667346 174.86090279 48.69667697 C170.11765819 48.67474604 165.37444489 48.64739225 160.63122559 48.62062073 C151.65710306 48.57078965 142.68296307 48.52581542 133.70880651 48.48259836 C123.48872221 48.43314387 113.26866933 48.37825629 103.04861546 48.32291877 C82.03243822 48.20924593 61.01623198 48.10309224 40 48 C40 66.48 40 84.96 40 104 C34.37582314 98.37582314 34.37582314 98.37582314 32.37890625 95.49609375 C31.92555908 94.84801758 31.47221191 94.19994141 31.00512695 93.53222656 C30.52906006 92.8409668 30.05299316 92.14970703 29.5625 91.4375 C28.79522583 90.33680176 28.79522583 90.33680176 28.01245117 89.21386719 C26.91324165 87.63661818 25.81605382 86.05795863 24.72070312 84.47802734 C22.96178688 81.94496834 21.19334338 79.41882572 19.421875 76.89453125 C12.67554057 67.27976205 12.67554057 67.27976205 10.95001221 64.70393372 C9.05303212 61.95217665 9.05303212 61.95217665 6.70732117 59.55328369 C-2.4783368 48.85259068 -1.02365711 37.13839906 -0.5625 23.6875 C-0.51728008 21.38614648 -0.47622881 19.08470707 -0.43945312 16.78320312 C-0.34104587 11.18690494 -0.19110193 5.5938602 0 0 Z " fill="#C4161C" transform="translate(75,129)"/>
<path d="M0 0 C25.74 0 51.48 0 78 0 C78 138.93 78 277.86 78 421 C52.26 421 26.52 421 0 421 C0 282.07 0 143.14 0 0 Z " fill="#253289" transform="translate(2384,23)"/>
<path d="M0 0 C25.74 0 51.48 0 78 0 C78 138.93 78 277.86 78 421 C52.26 421 26.52 421 0 421 C0 282.07 0 143.14 0 0 Z " fill="#253289" transform="translate(1273,23)"/>
<path d="M0 0 C25.74 0 51.48 0 78 0 C78 138.93 78 277.86 78 421 C52.26 421 26.52 421 0 421 C0 282.07 0 143.14 0 0 Z " fill="#253289" transform="translate(587,23)"/>
<path d="M0 0 C2.93295991 1.36908109 4.76663609 3.3023541 7.04125977 5.60180664 C7.50731125 6.06973129 7.97336273 6.53765594 8.45353699 7.01976013 C9.43951134 8.01244957 10.4218848 9.00872674 11.40087891 10.00830078 C12.87440331 11.51260879 14.3579733 13.00633697 15.84399414 14.49829102 C21.12556057 19.82316946 26.2033239 25.27684548 31.08422852 30.97290039 C32.11674061 32.13021276 33.15186611 33.28519929 34.18969727 34.43774414 C51.80138575 54.18418274 70.81813556 77.88954108 69.49829102 105.67211914 C68.34684954 120.21952078 61.2141181 131.75057062 50.83032227 141.67602539 C41.26968346 149.67269056 31.91139873 153.54601284 19.54125977 153.28149414 C5.19777196 152.001115 -8.57369918 146.9977511 -20.90014648 139.63696289 C-27.29260861 135.53122496 -27.29260861 135.53122496 -34.51342773 133.99633789 C-37.09227461 134.79711505 -39.44898602 135.87418847 -41.91577148 136.97290039 C-44.55948 137.73214726 -47.18578352 138.43845807 -49.85327148 139.09790039 C-51.75399414 139.59676758 -51.75399414 139.59676758 -53.69311523 140.10571289 C-63.05538742 142.22424703 -72.69294391 142.11273848 -82.23999023 142.07055664 C-83.46740433 142.06914169 -84.69481842 142.06772675 -85.95942688 142.06626892 C-89.84073428 142.06071675 -93.72198182 142.04817334 -97.60327148 142.03540039 C-100.2510571 142.0303792 -102.89884364 142.02581738 -105.54663086 142.02172852 C-112.00303114 142.01076303 -118.45939703 141.99407324 -124.91577148 141.97290039 C-124.89728149 143.8121106 -124.89728149 143.8121106 -124.87841797 145.68847656 C-124.86844699 147.31843903 -124.85877877 148.94840336 -124.84936523 150.57836914 C-124.84046265 151.38399292 -124.83156006 152.1896167 -124.8223877 153.01965332 C-124.75667224 168.215387 -130.73317763 181.65747349 -141.29077148 192.62524414 C-146.3401983 197.14117497 -151.75681127 201.11734768 -157.91577148 203.97290039 C-158.85727051 204.41859375 -159.79876953 204.86428711 -160.76879883 205.32348633 C-174.21240724 210.5665869 -188.66490381 209.73270646 -202.86938477 209.62475586 C-206.65520975 209.59626729 -210.43927762 209.61316741 -214.22504234 209.6419754 C-237.59943355 209.79285043 -256.67673321 208.19731517 -274.53686523 191.37133789 C-289.04029977 176.74882754 -297.0660173 156.41104711 -297.02929688 135.77416992 C-297.0294429 135.08079025 -297.02958893 134.38741058 -297.02973938 133.67301941 C-297.02904744 131.40055113 -297.02128899 129.1281667 -297.01342773 126.85571289 C-297.011561 125.27245122 -297.0101383 123.68918897 -297.00914001 122.10592651 C-297.00533497 117.95327133 -296.995522 113.80065153 -296.98443604 109.64801025 C-296.97237278 104.65776297 -296.96781009 99.66750381 -296.96198273 94.67724609 C-296.95230906 87.10910631 -296.93313846 79.54104403 -296.91577148 71.97290039 C-285.69577148 71.97290039 -274.47577148 71.97290039 -262.91577148 71.97290039 C-262.88999023 76.99379883 -262.86420898 82.01469727 -262.83764648 87.18774414 C-262.81245822 90.38245553 -262.78611026 93.57707411 -262.75561523 96.77172852 C-262.70739911 101.83431257 -262.66331007 106.89668157 -262.64477539 111.95947266 C-262.62954983 116.04461541 -262.5950012 120.12919274 -262.54746246 124.21408272 C-262.5327091 125.76681139 -262.52473396 127.31962082 -262.52388763 128.87241936 C-262.51471385 137.26981739 -262.39628801 144.62277309 -257.91577148 151.97290039 C-257.49132751 152.70053085 -257.06688354 153.42816132 -256.62957764 154.17784119 C-251.83136072 162.01496501 -242.95696622 165.45468935 -234.32928467 167.55078125 C-229.53881275 168.38862622 -224.70740559 168.27773797 -219.85717773 168.27368164 C-218.14158913 168.28010933 -218.14158913 168.28010933 -216.39134216 168.28666687 C-213.98176737 168.29238881 -211.57217531 168.29292626 -209.16259766 168.28857422 C-205.49343179 168.28541345 -201.8250723 168.30890426 -198.15600586 168.33422852 C-195.80639749 168.33650176 -193.45678698 168.33720489 -191.10717773 168.33618164 C-189.47553429 168.34999626 -189.47553429 168.34999626 -187.81092834 168.36408997 C-180.10539004 168.31769885 -172.90902261 167.50223929 -166.60327148 162.72290039 C-161.95470363 157.96622631 -159.85934712 153.61529915 -158.91577148 146.97290039 C-160.72616619 146.48583988 -162.53923715 146.0087252 -164.35327148 145.53540039 C-165.36260742 145.26856445 -166.37194336 145.00172852 -167.41186523 144.72680664 C-177.145651 142.63246924 -187.0666431 142.66992256 -196.97827148 142.41040039 C-198.52710914 142.36712047 -200.07593742 142.32350347 -201.62475586 142.27954102 C-205.38833081 142.17343973 -209.15200344 142.07190503 -212.91577148 141.97290039 C-213.86932786 138.64917509 -214.19397132 135.43670177 -214.45092773 131.99243164 C-214.53793945 130.82776367 -214.62495117 129.6630957 -214.71459961 128.46313477 C-214.80161133 127.24948242 -214.88862305 126.03583008 -214.97827148 124.78540039 C-215.11458984 122.99392578 -215.11458984 122.99392578 -215.25366211 121.16625977 C-215.72581515 114.71586827 -215.91577148 108.46760143 -215.91577148 101.97290039 C-169.38577148 101.64290039 -122.85577148 101.31290039 -74.91577148 100.97290039 C-77.39077148 94.53790039 -77.39077148 94.53790039 -79.91577148 87.97290039 C-83.19286224 71.5874466 -81.90270133 54.46868771 -72.66186523 40.25024414 C-65.56431226 30.99325671 -54.95022835 24.42294489 -43.46264648 22.17993164 C-38.86725462 21.80637985 -34.25046839 22.21229546 -29.66186523 22.58618164 C-24.24092615 21.69870778 -21.69739784 18.78081006 -17.91577148 14.97290039 C-16.5363362 13.63876729 -15.15612554 12.30543545 -13.77514648 10.97290039 C-11.69371929 8.95082949 -9.61810147 6.92531898 -7.56420898 4.87524414 C-6.89131836 4.2268457 -6.21842773 3.57844727 -5.52514648 2.91040039 C-4.62747559 2.02674805 -4.62747559 2.02674805 -3.71166992 1.12524414 C-1.91577148 -0.02709961 -1.91577148 -0.02709961 0 0 Z M-47.72827148 65.09790039 C-49.62667164 69.69402708 -50.01515701 74.15754274 -48.17749023 78.86352539 C-44.71115361 84.46008344 -38.89114851 88.42962505 -32.91577148 90.97290039 C-29.43156291 90.39749921 -29.43156291 90.39749921 -26.91577148 87.97290039 C-26.02889648 87.35415039 -25.14202148 86.73540039 -24.22827148 86.09790039 C-20.53647433 82.70543814 -18.15790033 79.05760619 -17.91577148 73.97290039 C-19.65400553 68.24695296 -21.87340317 65.43334923 -26.91577148 61.97290039 C-34.42557424 58.54451217 -42.11089614 58.51201206 -47.72827148 65.09790039 Z M15.08422852 71.97290039 C15.01429688 72.58697754 14.94436523 73.20105469 14.87231445 73.83374023 C14.54058933 76.67366992 14.18752808 79.51057707 13.83422852 82.34790039 C13.7246582 83.3134082 13.61508789 84.27891602 13.50219727 85.27368164 C12.44416145 93.5709099 9.86159709 100.55110973 6.08422852 107.97290039 C12.66244343 111.73188034 19.64179795 111.87021471 27.08422852 110.97290039 C29.80053698 109.62220854 31.58927519 108.60284099 33.45922852 106.22290039 C35.13255855 100.19891227 32.43445266 94.84662369 29.67407227 89.59790039 C25.66820717 82.98379389 20.58525198 77.36886959 15.08422852 71.97290039 Z " fill="#6D6E70" transform="translate(296.915771484375,679.027099609375)"/>
<path d="M0 0 C122.43 0 244.86 0 371 0 C371 23.76 371 47.52 371 72 C248.57 72 126.14 72 0 72 C0 48.24 0 24.48 0 0 Z " fill="#253289" transform="translate(1445,23)"/>
<path d="M0 0 C11.22 0 22.44 0 34 0 C34.029729 5.85999756 34.029729 5.85999756 34.06005859 11.83837891 C34.12693215 24.73858265 34.20447275 37.63870371 34.28752708 50.53881264 C34.33762734 58.36097894 34.38407054 66.1831349 34.421875 74.00537109 C34.45483855 80.82403242 34.49469383 87.64261286 34.54279006 94.46118486 C34.56801173 98.07083615 34.58980573 101.6804341 34.60334396 105.29014969 C34.61859453 109.32196912 34.64923252 113.35353198 34.68115234 117.38525391 C34.68331253 118.57927826 34.68547272 119.77330261 34.68769836 121.00350952 C34.69347005 128.71436118 34.69347005 128.71436118 37 136 C43.57753676 140.18570521 53.97839369 139.18202576 61.5 139.1875 C62.38558594 139.19974609 63.27117187 139.21199219 64.18359375 139.22460938 C70.08779128 139.23761422 75.27978162 138.47074721 81 137 C81.01458252 136.35675781 81.02916504 135.71351563 81.04418945 135.05078125 C81.59472729 113.23158574 82.27350799 90.94402687 98 74 C109.97953033 63.77663119 123.25771758 59.23708628 139.06640625 60.18359375 C151.92791799 61.81014739 162.95847053 68.29857556 170.93359375 78.46484375 C180.50624181 92.48414123 183.06441117 108.18240806 183.57128906 124.77050781 C183.77052119 129.98947363 184.13879692 134.13879692 188 138 C193.53354709 139.12869347 199.00497056 139.1460313 204.625 139.1328125 C205.53072754 139.13376923 206.43645508 139.13472595 207.36962891 139.13571167 C209.27571686 139.13638913 211.18180717 139.13456525 213.08789062 139.13037109 C215.99093857 139.12501671 218.89383182 139.13033088 221.796875 139.13671875 C223.65625034 139.13605789 225.51562558 139.13477657 227.375 139.1328125 C228.23561035 139.13483673 229.0962207 139.13686096 229.98291016 139.13894653 C238.39633728 139.48154455 238.39633728 139.48154455 245.8125 136.5 C249.05847905 129.66635989 249.28334435 122.37219949 249.1953125 114.93359375 C249.1924826 114.01409439 249.18965271 113.09459503 249.18673706 112.14723206 C249.17564584 109.24384907 249.15056263 106.34078791 249.125 103.4375 C249.11495588 101.45508262 249.10583255 99.47266034 249.09765625 97.49023438 C249.07745425 92.65993601 249.03828526 87.83032329 249 83 C260.55 83 272.1 83 284 83 C284.06928926 90.14962461 284.12889808 97.29805968 284.16479492 104.44775391 C284.17977713 106.87422661 284.20016992 109.30067272 284.22631836 111.72705078 C284.44482466 132.5408472 284.42973017 152.3790783 269.25 168.5 C261.85515271 175.36341331 253.7781858 180.08792881 243.59570312 180.16113281 C242.51357544 180.17074036 241.43144775 180.1803479 240.31652832 180.19024658 C239.14988647 180.19449646 237.98324463 180.19874634 236.78125 180.203125 C235.57239136 180.20882507 234.36353271 180.21452515 233.11804199 180.22039795 C230.55591709 180.22984696 227.99378005 180.23638153 225.43164062 180.24023438 C221.5427474 180.24989382 217.65439317 180.28090006 213.765625 180.3125 C211.27083646 180.31903506 208.77604415 180.32428355 206.28125 180.328125 C205.130802 180.3404718 203.980354 180.3528186 202.79504395 180.36553955 C193.41959039 180.34013043 183.78969638 179.88936352 176.5 173.4375 C175.9121875 172.83808594 175.324375 172.23867188 174.71875 171.62109375 C172.92319708 169.92756088 171.24736006 168.99061266 169 168 C168.34 168.70125 167.68 169.4025 167 170.125 C157.74039969 179.28085129 147.4009053 184.07411997 134.3125 184.25 C122.15073682 184.11079147 110.54060544 179.80330031 101.75 171.0625 C101.1725 170.381875 100.595 169.70125 100 169 C97.07399332 170.03270824 94.79868287 171.14212303 92.25 172.94140625 C88.86762571 175.08384766 85.97518189 176.13706062 82.125 177.1875 C80.97257812 177.51105469 79.82015625 177.83460938 78.6328125 178.16796875 C59.11826998 182.63742849 35.99968258 181.08532146 18 172 C9.15126637 166.33473148 4.20043126 159.99195675 1 150 C0.19293276 145.88587745 -0.12390982 142.00065202 -0.12025452 137.81167603 C-0.12162918 136.59178986 -0.12300385 135.37190369 -0.12442017 134.11505127 C-0.12088178 132.77673315 -0.11724698 131.43841528 -0.11352539 130.10009766 C-0.1132431 128.6805115 -0.11340208 127.26092519 -0.1139679 125.84133911 C-0.11425422 121.99882888 -0.10838413 118.15635002 -0.10139394 114.31384706 C-0.09513296 110.29398032 -0.09455443 106.27411281 -0.09336853 102.25424194 C-0.09026331 94.64708507 -0.08206082 87.0399426 -0.07201904 79.43279207 C-0.06083279 70.7701837 -0.05534112 62.10757463 -0.05032361 53.44496083 C-0.03987753 35.62996406 -0.0215421 17.81498704 0 0 Z M118.25 105.875 C112.81357748 113.42558684 113.10143154 122.03228676 114 131 C115.18396436 135.73585742 117.2043276 138.36670972 121.0625 141.4375 C127.18095199 144.69199574 133.58615248 145.03113413 140.32421875 143.45703125 C145.39243794 141.40078232 147.98215565 138.13456525 150.15234375 133.18359375 C152.21308622 125.44393884 152.69303532 115.57203002 149.3125 108.1875 C146.32607058 104.07107026 143.84271262 101.61423754 139 100 C130.46526337 99.35958686 124.42052347 99.42399819 118.25 105.875 Z " fill="#6D6E70" transform="translate(1014,641)"/>
<path d="M0 0 C3.13528555 1.37712542 5.12055773 2.92954048 7.42578125 5.44921875 C8.05806641 6.13306641 8.69035156 6.81691406 9.34179688 7.52148438 C9.99212891 8.23626953 10.64246094 8.95105469 11.3125 9.6875 C12.5990787 11.08832585 13.88683306 12.48807285 15.17578125 13.88671875 C15.8085498 14.5739502 16.44131836 15.26118164 17.09326172 15.96923828 C19.5074118 18.54041631 22.00456833 21.02000081 24.51049805 23.5012207 C26.18068357 25.18180895 27.73174909 26.93143572 29.25 28.75 C32.18279622 32.1583848 35.30072901 35.34399164 38.5 38.5 C42.21847447 42.16846136 45.73668185 45.93149217 49.125 49.90625 C51.93600311 53.04520347 54.95267797 55.97350681 57.95092773 58.93139648 C61.20000607 62.15366448 64.22443863 65.49340645 67.19140625 68.97265625 C70.17349907 72.31543416 73.40176687 75.40988768 76.58984375 78.5546875 C78.68459733 80.67999665 80.63764548 82.84732991 82.5625 85.125 C89.49105599 93.16212495 96.26708296 99.31705504 107 101 C109.92941861 101.16357878 112.85552953 101.18776028 115.7890625 101.203125 C116.64696381 101.20882507 117.50486511 101.21452515 118.38876343 101.22039795 C120.20935849 101.22983247 122.02997052 101.23637578 123.85058594 101.24023438 C126.5673863 101.24979721 129.28338166 101.28077307 132 101.3125 C167.52223104 101.52809911 197.19613967 88.75396934 227 70 C227.66 69.34 228.32 68.68 229 68 C219.27641504 63.24164991 208.75353712 63.76736947 198.12109375 63.46484375 C196.69905148 63.42174814 195.2770189 63.37833148 193.85499573 63.33460999 C190.14143742 63.22128442 186.42776495 63.1122748 182.71405029 63.00421143 C178.91280273 62.89282068 175.11168138 62.77728242 171.31054688 62.66210938 C163.87381429 62.43738261 156.43695597 62.21722236 149 62 C147.77670154 56.71908133 146.69206564 51.47261427 145.9296875 46.1015625 C145.75566406 44.88082031 145.58164063 43.66007813 145.40234375 42.40234375 C145.22832031 41.15582031 145.05429688 39.90929687 144.875 38.625 C144.60236328 36.72041016 144.60236328 36.72041016 144.32421875 34.77734375 C143 25.40824718 143 25.40824718 143 22 C152.24166941 21.95330672 161.48329714 21.91794537 170.72505951 21.89637566 C175.01808388 21.88601437 179.31102654 21.87199829 183.60400391 21.84912109 C187.76023644 21.82711556 191.91639124 21.81537412 196.07267761 21.81024551 C197.64480307 21.80659876 199.21692511 21.79948067 200.78901672 21.78853989 C220.29351518 21.65841236 239.70628823 22.40036092 255 36 C267.216789 48.3835711 271.2728248 64.88699923 271.1875 81.875 C271.14974718 84.58505483 271.08293537 87.29077792 271 90 C270.30777344 90.3810791 269.61554687 90.7621582 268.90234375 91.15478516 C256.29765862 98.10272342 243.72952348 105.0950501 231.3125 112.375 C229.82339111 113.24547974 229.82339111 113.24547974 228.30419922 114.13354492 C222.99504161 117.23722382 222.99504161 117.23722382 217.70166016 120.36767578 C186.43964327 138.96933199 154.10870929 141.97973709 118.44046021 142.28610229 C116.7021571 142.30356345 114.96390759 142.32780772 113.22579956 142.35916138 C95.21809246 142.66674342 95.21809246 142.66674342 87 138 C85.95328125 137.42378906 84.9065625 136.84757813 83.828125 136.25390625 C78.97192215 133.06794287 74.33772249 129.86877952 70 126 C69.61070312 126.43570313 69.22140625 126.87140625 68.8203125 127.3203125 C60.67699116 135.98900941 50.32342359 141.90255059 38.22885132 142.36076355 C36.56452241 142.36929328 34.9000544 142.36186867 33.23583984 142.34057617 C32.31754395 142.34101425 31.39924805 142.34145233 30.453125 142.34190369 C27.45550333 142.33983448 24.45845994 142.3165926 21.4609375 142.29296875 C19.36772975 142.28736614 17.27451804 142.28309919 15.18130493 142.28010559 C9.70026588 142.26870921 4.21946933 142.23928724 -1.26147461 142.20599365 C-6.8656893 142.17518003 -12.46994357 142.16157621 -18.07421875 142.14648438 C-29.04958509 142.11441223 -40.0247723 142.06327944 -51 142 C-51.48077319 139.44891414 -51.96090493 136.8977103 -52.44067383 134.34643555 C-52.57580635 133.62975456 -52.71093887 132.91307358 -52.85016632 132.17467499 C-53.87286929 126.73222912 -54.82669551 121.28307715 -55.6875 115.8125 C-55.81705078 115.02037109 -55.94660156 114.22824219 -56.08007812 113.41210938 C-56.20189453 112.64318359 -56.32371094 111.87425781 -56.44921875 111.08203125 C-56.55580811 110.41405518 -56.66239746 109.7460791 -56.7722168 109.05786133 C-57.03394456 106.69333474 -57.01427245 104.37738026 -57 102 C-55.80396652 101.98969254 -54.60793304 101.97938507 -53.37565613 101.96876526 C-42.11868779 101.87112091 -30.86177583 101.76839535 -19.60489941 101.66066074 C-13.81726691 101.60543411 -8.02962936 101.55201444 -2.24194336 101.50268555 C3.34071506 101.45503828 8.92331129 101.40269522 14.50589561 101.34705925 C16.63858179 101.32663736 18.77128502 101.30792401 20.90400124 101.29092598 C23.88503829 101.26687841 26.86595756 101.23682415 29.84692383 101.20532227 C31.17725143 101.19668907 31.17725143 101.19668907 32.53445435 101.18788147 C33.34633713 101.17809265 34.15821991 101.16830383 34.9947052 101.15821838 C35.69987683 101.15176583 36.40504847 101.14531328 37.13158894 101.1386652 C39.22936658 101.05973697 39.22936658 101.05973697 42 100 C41.40555907 96.56291207 40.20565816 94.75331426 37.875 92.1875 C37.24335938 91.49011719 36.61171875 90.79273438 35.9609375 90.07421875 C33.60732546 87.58464108 31.18612157 85.17392386 28.7421875 82.7734375 C26.95284173 80.95199585 25.28711468 79.06285721 23.625 77.125 C21.03365795 74.1153247 18.32745217 71.28911384 15.5 68.5 C12.0928121 65.13885518 8.92541826 61.66298797 5.8125 58.03125 C3.7890712 55.76361428 1.66346653 53.6342305 -0.5 51.5 C-3.9019628 48.14400967 -7.06607016 44.67515168 -10.171875 41.046875 C-12.9688328 37.91523848 -15.97452638 35.00378205 -18.984375 32.078125 C-20.85395167 30.15057696 -22.44491299 28.18499568 -24 26 C-22.4152642 22.13671373 -19.94043113 19.71123077 -16.9921875 16.796875 C-16.50670441 16.3142218 -16.02122131 15.8315686 -15.52102661 15.33428955 C-13.97700134 13.80141438 -12.42615176 12.27565996 -10.875 10.75 C-9.82375991 9.70879639 -8.77297343 8.66713459 -7.72265625 7.625 C-5.15366996 5.07800536 -2.57851839 2.53734823 0 0 Z " fill="#6D6E70" transform="translate(2695,679)"/>
<path d="M0 0 C11.22 0 22.44 0 34 0 C34.01417969 3.40699219 34.02835938 6.81398438 34.04296875 10.32421875 C34.07359055 13.62729786 34.11267916 16.93017589 34.15258789 20.2331543 C34.17577142 22.52702717 34.19016441 24.82100655 34.19555664 27.11499023 C34.2048432 30.41457516 34.24582988 33.71248414 34.29296875 37.01171875 C34.28706978 38.54792122 34.28706978 38.54792122 34.28105164 40.11515808 C34.36974217 44.45244556 34.54165196 47.23379975 36.79418945 50.99926758 C45.89734554 56.68050771 56.51956392 56.44645609 66.92578125 56.3984375 C68.32675833 56.40046491 69.72773437 56.40338185 71.12870789 56.40713501 C74.04074316 56.41151981 76.95249949 56.40524834 79.86450195 56.39111328 C83.58093615 56.37394305 87.29672387 56.38393573 91.01313496 56.40183067 C93.89663003 56.41270543 96.77997332 56.40920673 99.66347313 56.4014473 C101.03369412 56.3994596 102.4039293 56.40185376 103.77413368 56.40888596 C113.87353971 56.6545995 113.87353971 56.6545995 123 53 C124.69480782 49.61184488 125.25925649 46.79029832 125.31884766 43.02612305 C125.33871735 42.06550461 125.35858704 41.10488617 125.37905884 40.11515808 C125.39061005 39.0910231 125.40216125 38.06688812 125.4140625 37.01171875 C125.43342865 35.95338333 125.4527948 34.89504791 125.4727478 33.80464172 C125.53241248 30.43234252 125.57887693 27.06000894 125.625 23.6875 C125.66319181 21.39777177 125.70224424 19.10805772 125.7421875 16.81835938 C125.83971927 11.21231437 125.91939319 5.60641608 126 0 C137.22 0 148.44 0 160 0 C160.0842988 7.33165435 160.16438368 14.66151435 160.20700073 21.99323273 C160.22796853 25.40870785 160.25590042 28.82377435 160.30175781 32.23901367 C160.35424748 36.1736121 160.3730748 40.10805409 160.390625 44.04296875 C160.41127014 45.24455124 160.43191528 46.44613373 160.45318604 47.68412781 C160.45691144 61.9904919 156.10476237 74.73957804 146.25 85.25 C138.40144852 92.67755638 129.70411774 97.23441013 118.80810547 97.2746582 C118.11449417 97.27976913 117.42088287 97.28488007 116.70625305 97.29014587 C114.42647521 97.30397713 112.14700218 97.30308899 109.8671875 97.30078125 C108.26783132 97.30467381 106.66847616 97.30900963 105.06912231 97.31376648 C101.71857351 97.32121637 98.36813008 97.3209479 95.01757812 97.31567383 C90.754468 97.30990315 86.49179575 97.32675762 82.22875786 97.3500185 C78.92387429 97.36486348 75.6190933 97.36561266 72.31418228 97.36250877 C70.74433658 97.36301734 69.17448442 97.36816631 67.60467148 97.37832069 C55.58065165 97.44651598 44.31527118 96.79870146 34 90 C33.98582031 90.57363281 33.97164062 91.14726563 33.95703125 91.73828125 C32.72907417 113.60919252 24.19296399 134.13211905 8 149 C-5.71878617 160.77020679 -20.0999825 164.31721077 -37.76171875 164.3359375 C-39.19887926 164.34237987 -40.63603851 164.34910925 -42.07319641 164.35610962 C-45.07804396 164.36803783 -48.08277696 164.37179524 -51.08764648 164.37060547 C-54.9023385 164.37040292 -58.71628019 164.39765775 -62.5307951 164.43214989 C-65.49859358 164.45460108 -68.46621694 164.45843745 -71.43409157 164.45738602 C-72.83845406 164.45971652 -74.24282332 164.46839264 -75.64710045 164.48405075 C-94.31918289 164.67271332 -109.01465348 158.62950066 -122.28125 145.7109375 C-123.1784375 144.81632813 -124.075625 143.92171875 -125 143 C-125.6703125 142.35289062 -126.340625 141.70578125 -127.03125 141.0390625 C-139.2050833 128.36720875 -145.14339431 109.73851766 -145.11352539 92.50415039 C-145.11367142 91.79111755 -145.11381744 91.07808472 -145.1139679 90.34344482 C-145.11327713 88.0114832 -145.1055243 85.67960374 -145.09765625 83.34765625 C-145.0957891 81.72098331 -145.0943666 80.09430981 -145.09336853 78.46763611 C-145.08956677 74.20484846 -145.07975668 69.94209537 -145.06866455 65.67932129 C-145.05659233 60.55472274 -145.05203704 55.43011257 -145.04621124 50.30550385 C-145.03654351 42.5369786 -145.01737062 34.76852904 -145 27 C-133.78 27 -122.56 27 -111 27 C-110.97421875 32.02089844 -110.9484375 37.04179688 -110.921875 42.21484375 C-110.89668674 45.40955514 -110.87033878 48.60417372 -110.83984375 51.79882812 C-110.79162763 56.86141218 -110.74753859 61.92378118 -110.72900391 66.98657227 C-110.71377835 71.07171502 -110.67922972 75.15629235 -110.63169098 79.24118233 C-110.61693761 80.793911 -110.60896248 82.34672043 -110.60811615 83.89951897 C-110.5945471 96.32021175 -108.92037252 104.76583155 -100.27734375 113.98828125 C-91.43127391 121.8025625 -80.91936319 123.31171676 -69.58203125 123.3359375 C-68.48839767 123.3425943 -67.3947641 123.3492511 -66.26799011 123.35610962 C-63.95919468 123.36620692 -61.65037023 123.37092755 -59.34155273 123.37060547 C-55.84113401 123.37496434 -52.34199173 123.41127759 -48.84179688 123.44921875 C-46.58854593 123.45509064 -44.33528906 123.45905754 -42.08203125 123.4609375 C-40.53452934 123.48249405 -40.53452934 123.48249405 -38.95576477 123.50448608 C-27.51161483 123.43389489 -17.16999303 120.26706225 -9 112 C-2.8917122 104.34165208 -0.70445366 98.12702013 -0.68115234 88.4362793 C-0.67110672 87.47969925 -0.6610611 86.5231192 -0.65071106 85.53755188 C-0.61987816 82.38311348 -0.60284347 79.22875997 -0.5859375 76.07421875 C-0.56722596 73.88417328 -0.54765256 71.69413501 -0.5272522 69.50410461 C-0.47592365 63.74531301 -0.43630167 57.98649803 -0.39910889 52.2276001 C-0.35907388 46.34894016 -0.30797921 40.47037753 -0.2578125 34.59179688 C-0.16104453 23.06125947 -0.0776647 11.53068192 0 0 Z " fill="#6D6E70" transform="translate(1535,724)"/>
<path d="M0 0 C11.22 0 22.44 0 34 0 C34.029729 5.76126343 34.029729 5.76126343 34.06005859 11.63891602 C34.12695853 24.32756983 34.20449921 37.01613988 34.28752708 49.70469761 C34.33760798 57.39791954 34.38405135 65.09113106 34.421875 72.78442383 C34.45485874 79.49139411 34.49472505 86.19828249 34.54279006 92.90516227 C34.56799174 96.45504158 34.58979153 100.004867 34.60334396 103.55481148 C34.61861746 107.52174683 34.64925956 111.48848403 34.68115234 115.45532227 C34.68331253 116.62704987 34.68547272 117.79877747 34.68769836 119.00601196 C34.74611553 124.69223926 34.9152056 129.67390365 37 135 C43.17356174 140.61232885 54.31699986 139.15704378 62.125 139.125 C63.55005859 139.13080078 63.55005859 139.13080078 65.00390625 139.13671875 C70.11117638 139.12963516 74.9672401 138.87829328 80 138 C80.78056769 135.21438332 81.13998368 132.68580207 81.2109375 129.796875 C81.87769993 109.17045583 84.17150881 88.33700795 99.16796875 72.74609375 C109.56467223 63.0293812 120.95580771 60.1759523 135 60 C148.26740778 60.70571318 158.68207505 65.50500917 167.74609375 75.23828125 C180.78655521 91.21680162 184.23657686 111.79577409 182.60766602 131.91357422 C181.31778066 144.52007183 177.88350365 155.86116412 170 166 C169.56171875 166.61230469 169.1234375 167.22460938 168.671875 167.85546875 C162.10676203 176.40143477 151.46225531 181.90390355 141 184 C130.43069371 184.73347859 119.18981215 184.70143315 109.98535156 178.68261719 C105.75953091 175.95790339 102.98750995 174.57099513 97.9140625 175.3515625 C96.14341179 175.74299715 94.37992502 176.16820334 92.625 176.625 C90.86848002 177.03937192 89.11064829 177.44822182 87.3515625 177.8515625 C86.47258301 178.05330078 85.59360352 178.25503906 84.68798828 178.46289062 C61.60363801 183.07556734 34.48744197 181.63497283 14.125 169.1875 C6.55158699 163.79555922 2.76479987 157.05253457 1 148 C-0.05235909 140.38410468 -0.13531487 132.89966492 -0.11352539 125.21850586 C-0.11324281 123.84773765 -0.11340263 122.47696929 -0.1139679 121.10620117 C-0.11425311 117.41055752 -0.10840116 113.71494677 -0.10139394 110.01931071 C-0.0951143 106.14760556 -0.09455297 102.27589953 -0.09336853 98.40419006 C-0.09026876 91.08400213 -0.08207371 83.76382925 -0.07201904 76.44364792 C-0.06081574 68.10502679 -0.05533685 59.76640492 -0.05032361 51.42777812 C-0.03988989 34.28517523 -0.02156134 17.14259306 0 0 Z M118 105 C113.42327327 111.5171518 112.20008397 119.14368184 113 127 C114.5205258 133.68584139 116.82333173 138.63786206 122.4375 142.8125 C128.81448504 144.93816168 136.80012934 145.56587011 143 142.5 C147.52363264 138.73030613 150.26926474 134.69809944 151.8125 129 C152.41023767 119.43619736 152.16144694 111.79241819 146 104 C140.92345126 99.5387905 135.82786526 99.59142132 129.3046875 99.6640625 C124.51021053 100.15144432 121.37026407 101.55502565 118 105 Z " fill="#6D6E70" transform="translate(2428,641)"/>
<path d="M0 0 C11.22 0 22.44 0 34 0 C34.01458252 3.96201416 34.02916504 7.92402832 34.04418945 12.00610352 C34.09451749 25.09391745 34.16095948 38.1816079 34.23571491 51.26930332 C34.28064715 59.20466851 34.32006771 67.13998907 34.34643555 75.07543945 C34.36943651 81.99338772 34.40285788 88.91119447 34.44870156 95.82903045 C34.47260563 99.49071747 34.49135279 103.15226457 34.49761391 106.81402779 C34.50480544 110.90559927 34.53526464 114.99668491 34.56762695 119.08813477 C34.56619186 120.29726532 34.56475677 121.50639587 34.5632782 122.75216675 C34.63218273 128.90882814 34.8867501 133.61715856 38 139 C42.32483626 142.32679712 46.37934094 143.12419795 51.73339844 143.12939453 C53.13570709 143.13412277 53.13570709 143.13412277 54.56634521 143.13894653 C55.57054504 143.1369223 56.57474487 143.13489807 57.609375 143.1328125 C58.65015198 143.13376923 59.69092896 143.13472595 60.76324463 143.13571167 C62.9655361 143.13639196 65.16782958 143.13454818 67.37011719 143.13037109 C70.72335381 143.12504234 74.07645516 143.13031004 77.4296875 143.13671875 C79.57291696 143.13605752 81.71614634 143.13477543 83.859375 143.1328125 C84.85547791 143.13483673 85.85158081 143.13686096 86.87786865 143.13894653 C92.34536928 143.12075679 97.59065184 142.80508625 103 142 C106.95523371 130.78087035 106.34063338 119.47866848 106.1875 107.75 C106.17242419 105.73308292 106.15874091 103.71615493 106.14648438 101.69921875 C106.11628572 96.79898428 106.05752516 91.90029111 106 87 C117.55 87 129.1 87 141 87 C141.0924948 94.25570342 141.17193427 101.50931054 141.21972656 108.76513672 C141.23967724 111.22647077 141.26684764 113.68775845 141.30175781 116.14892578 C141.58354778 136.54554673 140.69040309 153.00275109 128.75 170.25 C119.76156136 179.23843864 109.6025965 184.41659515 96.83908081 184.53013611 C95.73460602 184.51890213 94.63013123 184.50766815 93.4921875 184.49609375 C92.32672394 184.49754898 91.16126038 184.49900421 89.96047974 184.50050354 C87.51155074 184.49885259 85.0626105 184.48738225 82.61376953 184.46655273 C78.87878146 184.43752938 75.14520941 184.44597624 71.41015625 184.45898438 C69.02082648 184.45274793 66.63150116 184.44435773 64.2421875 184.43359375 C63.13366425 184.43652939 62.02514099 184.43946503 60.88302612 184.44248962 C54.53165485 184.36563515 49.79631699 183.62302876 44 181 C42.79537109 180.52626953 42.79537109 180.52626953 41.56640625 180.04296875 C35.91915681 177.63215466 31.0144334 174.52420018 26 171 C24.515 170.01 24.515 170.01 23 169 C22.55011719 169.43570313 22.10023437 169.87140625 21.63671875 170.3203125 C11.04317201 180.12836579 0.18904185 184.31531404 -14.09765625 184.30078125 C-15.52554726 184.30720894 -15.52554726 184.30720894 -16.98228455 184.31376648 C-18.9900534 184.3194841 -20.99784296 184.32002908 -23.00561523 184.31567383 C-26.02950798 184.31253425 -29.05240118 184.33593486 -32.07617188 184.36132812 C-49.68012322 184.4203711 -64.24574614 182.76224311 -79.3125 172.8125 C-86.5475068 165.24098125 -92 155.70959302 -92 145 C-91.03026749 144.99191315 -90.06053497 144.98382629 -89.06141663 144.97549438 C-79.89594881 144.89780893 -70.73062535 144.81001415 -61.56534672 144.71247292 C-56.85405958 144.66265399 -52.14279331 144.6163233 -47.43139648 144.578125 C-42.87957662 144.54108947 -38.32793771 144.4946813 -33.77627373 144.44193649 C-32.04489778 144.42348917 -30.31348318 144.40834607 -28.58204842 144.39665604 C-14.28821971 145.21850001 -14.28821971 145.21850001 -2 140 C-1.02535184 136.40776395 -0.86593397 132.98271702 -0.84178162 129.27360535 C-0.8319928 128.13082123 -0.82220398 126.98803711 -0.81211853 125.81062317 C-0.80636307 124.56624985 -0.8006076 123.32187653 -0.79467773 122.03979492 C-0.78477814 120.72233276 -0.77487854 119.40487061 -0.76467896 118.04748535 C-0.73769975 114.44254374 -0.7166525 110.83758914 -0.69667697 107.23260283 C-0.67477421 103.46228033 -0.64740655 99.69199756 -0.62062073 95.92170715 C-0.57075177 88.78557803 -0.52579149 81.64942678 -0.48259836 74.51325446 C-0.43317638 66.38751115 -0.37827668 58.26180773 -0.32291877 50.13610303 C-0.20918773 33.42410417 -0.10305251 16.71206864 0 0 Z " fill="#6D6E70" transform="translate(1834,637)"/>
<path d="M0 0 C11.22 0 22.44 0 34 0 C34.04898438 3.40699219 34.09796875 6.81398438 34.1484375 10.32421875 C34.20246135 13.6272416 34.2597634 16.93019245 34.31738281 20.2331543 C34.35564405 22.52704496 34.39050189 24.82099503 34.421875 27.11499023 C34.46758706 30.4141156 34.52557222 33.71283296 34.5859375 37.01171875 C34.59748871 38.03585373 34.60903992 39.05998871 34.62094116 40.11515808 C34.64081085 41.07577652 34.66068054 42.03639496 34.68115234 43.02612305 C34.69447601 43.86773483 34.70779968 44.70934662 34.7215271 45.57646179 C35.06094918 48.53043818 35.46479696 50.42615284 37 53 C43.24729329 56.98923588 49.95917013 56.41691223 57.16796875 56.37231445 C58.48423248 56.37596512 59.80049622 56.37961578 61.15664673 56.38337708 C64.75172741 56.39274692 68.34653397 56.38339378 71.94159317 56.37004495 C75.71260849 56.35868829 79.48361115 56.36284121 83.25463867 56.36479187 C89.58614554 56.36567352 95.91754508 56.35462159 102.24902344 56.33618164 C109.55800952 56.31501599 116.86683844 56.31150493 124.17584896 56.3177436 C131.22114565 56.32344818 138.26638728 56.31777871 145.31167603 56.30657005 C148.30352807 56.30193854 151.29534628 56.30104392 154.28720093 56.3031559 C158.46889401 56.30539794 162.65036912 56.29089521 166.83203125 56.2746582 C168.68533554 56.27837433 168.68533554 56.27837433 170.57608032 56.28216553 C178.98321469 56.23395596 178.98321469 56.23395596 187 54 C189.92921802 48.95315291 189.34947281 42.61175175 189.4140625 36.9140625 C189.43342865 35.85714203 189.4527948 34.80022156 189.4727478 33.71127319 C189.53232914 30.34926316 189.57884342 26.98721849 189.625 23.625 C189.66319948 21.33982916 189.70225236 19.05467242 189.7421875 16.76953125 C189.83961266 11.17976256 189.91935262 5.59013651 190 0 C201.22 0 212.44 0 224 0 C224.06926497 7.43444038 224.12888174 14.86773889 224.16479492 22.30224609 C224.179783 24.82572242 224.20018036 27.34917313 224.22631836 29.87255859 C224.44756931 51.79809365 224.28646288 69.95426197 208.43359375 86.76953125 C201.27341239 93.33207308 193.20919348 97.23391109 183.43685913 97.27415466 C182.13334503 97.28412979 180.82983093 97.29410492 179.48681641 97.30438232 C178.05419934 97.30527801 176.62158212 97.30594164 175.18896484 97.30639648 C173.67061966 97.31402349 172.15227832 97.32245192 170.63394165 97.33161926 C166.51791249 97.35352288 162.40195761 97.36235805 158.28587675 97.36744571 C155.70977754 97.37109539 153.13369759 97.37733875 150.55760574 97.3844471 C141.55711264 97.40893111 132.55667704 97.42199039 123.55615234 97.42553711 C115.18891742 97.42916744 106.82205041 97.45902934 98.4549278 97.50094169 C91.2546662 97.53573428 84.05452595 97.55108713 76.85418093 97.55178314 C72.5612776 97.55257317 68.26874896 97.56118392 63.97593307 97.58978081 C59.93246308 97.61611456 55.88967428 97.61808245 51.84615707 97.60212517 C50.37084965 97.60032252 48.89550167 97.60689323 47.42028046 97.62294388 C34.01566122 97.75977156 23.94025237 94.78001232 14.1875 85.32421875 C2.34658075 72.74324204 -0.34427629 59.70546107 -0.1953125 42.7734375 C-0.1924826 41.54460846 -0.18965271 40.31577942 -0.18673706 39.04971313 C-0.17561897 35.15803942 -0.15052976 31.26660315 -0.125 27.375 C-0.11495939 24.72265959 -0.10583544 22.07031555 -0.09765625 19.41796875 C-0.07741604 12.94514932 -0.03825052 6.47283778 0 0 Z " fill="#6D6E70" transform="translate(2156,724)"/>
<path d="M0 0 C11.22 0 22.44 0 34 0 C34 60.72 34 121.44 34 184 C22.78 184 11.56 184 0 184 C0 123.28 0 62.56 0 0 Z " fill="#6D6E70" transform="translate(2033,637)"/>
<path d="M0 0 C0.78145386 -0.00014603 1.56290771 -0.00029205 2.36804199 -0.0004425 C4.92182299 0.00024784 7.4755288 0.00799864 10.02929688 0.01586914 C11.81148234 0.01773645 13.59366833 0.01915887 15.37585449 0.02015686 C20.04469239 0.02395743 24.71349871 0.03376648 29.38232422 0.04486084 C34.15526909 0.05512808 38.92821912 0.05966582 43.70117188 0.06469727 C53.05014625 0.07539116 62.39908898 0.0929678 71.74804688 0.11352539 C71.74804688 10.67352539 71.74804688 21.23352539 71.74804688 32.11352539 C69.33097412 32.12287109 66.91390137 32.1322168 64.42358398 32.1418457 C56.42472395 32.17565974 48.42612071 32.23123332 40.42746639 32.29742813 C35.57931632 32.33688519 30.73134741 32.36908237 25.88305664 32.38452148 C21.2014411 32.39969972 16.52032363 32.434166 11.83893013 32.48183441 C10.05567321 32.49663617 8.27234517 32.50456571 6.48902702 32.50540924 C3.98490591 32.50778433 1.48215524 32.53490593 -1.02172852 32.56762695 C-1.75397141 32.56259659 -2.48621429 32.55756622 -3.24064636 32.55238342 C-8.74233096 32.66312896 -11.80534796 34.10474531 -16.25195312 37.11352539 C-18.18126542 39.18126307 -18.18126542 39.18126307 -19.50195312 41.48852539 C-20.22511719 42.65834961 -20.22511719 42.65834961 -20.96289062 43.85180664 C-22.50956703 46.5655207 -23.94301081 49.27748371 -25.25195312 52.11352539 C-31.11538063 51.0816524 -36.46094942 48.92564338 -42.00195312 46.80102539 C-43.06800781 46.40979492 -44.1340625 46.01856445 -45.23242188 45.61547852 C-46.24433594 45.22682617 -47.25625 44.83817383 -48.29882812 44.43774414 C-49.2253418 44.08800537 -50.15185547 43.7382666 -51.10644531 43.37792969 C-53.25195312 42.11352539 -53.25195312 42.11352539 -54.17675781 40.23266602 C-54.27079491 37.58252963 -53.64575109 36.22289424 -52.40820312 33.88305664 C-51.98990234 33.08407959 -51.57160156 32.28510254 -51.140625 31.46191406 C-50.68236328 30.6250708 -50.22410156 29.78822754 -49.75195312 28.92602539 C-49.28853516 28.07049072 -48.82511719 27.21495605 -48.34765625 26.33349609 C-42.31512356 15.38436559 -36.64352528 7.44897233 -24.44726562 3.11743164 C-16.35824172 0.77587209 -8.38235589 -0.0418977 0 0 Z " fill="#6D6E70" transform="translate(2030.251953125,590.886474609375)"/>
<path d="M0 0 C10.56 0 21.12 0 32 0 C32 40.92 32 81.84 32 124 C21.44 124 10.88 124 0 124 C0 83.08 0 42.16 0 0 Z " fill="#6D6E70" transform="translate(1742,637)"/>
<path d="M0 0 C0.495 7.425 0.495 7.425 1 15 C-7.04653785 18.41780548 -15.12437709 21.56812175 -23.3671875 24.4765625 C-25.08674904 25.08807663 -25.08674904 25.08807663 -26.84104919 25.71194458 C-30.51802798 27.01914555 -34.19648643 28.32212501 -37.875 29.625 C-42.90849547 31.41140931 -47.94064284 33.20160856 -52.97265625 34.9921875 C-54.19661606 35.42752808 -55.42057587 35.86286865 -56.68162537 36.31140137 C-63.54976946 38.75809183 -70.40761087 41.22937798 -77.24609375 43.7578125 C-77.96633728 44.02401398 -78.68658081 44.29021545 -79.4286499 44.56448364 C-82.59275511 45.7362654 -85.75357771 46.91593522 -88.91162109 48.10400391 C-89.96816895 48.49765137 -91.0247168 48.89129883 -92.11328125 49.296875 C-92.99798096 49.63041992 -93.88268066 49.96396484 -94.79418945 50.30761719 C-97 51 -97 51 -100 51 C-100.33776684 49.2508503 -100.67003671 47.50063855 -101 45.75 C-101.185625 44.77546875 -101.37125 43.8009375 -101.5625 42.796875 C-102 40 -102 40 -102 36 C-88.07457839 30.6669438 -74.00964456 25.74240213 -59.9375 20.8125 C-55.12993891 19.1257672 -50.3227638 17.43793591 -45.515625 15.75 C-44.34480881 15.33905594 -43.17399261 14.92811188 -41.96769714 14.50471497 C-35.17700634 12.12010871 -28.3900324 9.72548955 -21.609375 7.3125 C-20.49116112 6.91462532 -20.49116112 6.91462532 -19.35035706 6.50871277 C-16.02230812 5.32381204 -12.69514577 4.13647586 -9.36889648 2.9465332 C-7.69162476 2.34844849 -7.69162476 2.34844849 -5.98046875 1.73828125 C-5.03067139 1.39837158 -4.08087402 1.05846191 -3.10229492 0.70825195 C-1 0 -1 0 0 0 Z " fill="#6D6E70" transform="translate(574,595)"/>
<path d="M0 0 C0.70745361 0.00563965 1.41490723 0.0112793 2.14379883 0.01708984 C8.09993312 0.15578023 13.15590749 0.50085937 17.671875 4.77734375 C22.54010738 10.37034106 22.468881 14.530918 22.40234375 21.75390625 C21.90679877 28.11223687 19.77112574 31.58981027 15.4375 36.125 C7.47991944 41.38000603 0.47108019 42.03484906 -8.875 40.3125 C-14.69718267 38.30120053 -18.26050859 34.56960984 -20.99609375 29.05078125 C-22.0641233 25.72327585 -22.17612452 22.86727089 -22.1875 19.375 C-22.20425781 18.19035156 -22.22101563 17.00570312 -22.23828125 15.78515625 C-21.71878697 10.81923782 -20.13129334 7.53483947 -16.5625 4.0625 C-11.29282016 0.63108057 -6.18662672 -0.05123197 0 0 Z " fill="#6D6E70" transform="translate(1249.875,668.6875)"/>
<path d="M0 0 C0.70745361 0.00563965 1.41490723 0.0112793 2.14379883 0.01708984 C8.09993312 0.15578023 13.15590749 0.50085937 17.671875 4.77734375 C22.54010738 10.37034106 22.468881 14.530918 22.40234375 21.75390625 C21.90679877 28.11223687 19.77112574 31.58981027 15.4375 36.125 C8.43073211 40.75211087 2.3578319 41.93984505 -6.00390625 40.94921875 C-11.94776568 39.63105673 -15.60629532 36.93904446 -19.3125 32.1875 C-21.71132999 27.77365283 -22.06138557 24.47782949 -22.125 19.5 C-22.16367188 17.69595703 -22.16367188 17.69595703 -22.203125 15.85546875 C-21.738184 10.83521294 -20.16469126 7.56733474 -16.5625 4.0625 C-11.29282016 0.63108057 -6.18662672 -0.05123197 0 0 Z " fill="#6D6E70" transform="translate(1926.875,668.6875)"/>
<path d="M0 0 C4.39677049 3.55483572 6.55319202 6.93818955 7.37109375 12.54296875 C7.55104365 19.70920869 6.23914481 25.13285444 2 31 C-4.18767143 36.88979666 -10.13683806 37.35821965 -18.34375 37.2734375 C-24.20784427 36.83488344 -29.4283495 35.5656976 -33.6875 31.31640625 C-38.58998947 24.84010624 -38.7107052 17.91928652 -38 10 C-36.73402898 5.27167451 -34.75929895 2.13739193 -30.5625 -0.4375 C-21.28056905 -4.50852235 -9.10422871 -4.77069187 0 0 Z " fill="#6D6E70" transform="translate(2908,642)"/>
<path d="M0 0 C4.49673632 3.44430867 5.95173636 6.47279169 7 12 C7.53301278 17.756538 6.71257678 22.89026235 4 28 C-0.50523293 33.2411871 -5.26573807 36.55461647 -12.2421875 37.2109375 C-19.05100741 37.4866841 -26.47812365 36.94702464 -31.890625 32.41796875 C-37.25318852 26.44365648 -38.47436189 20.93933638 -38.30859375 13.01171875 C-37.8639752 8.67246687 -36.7937486 5.38019145 -34 2 C-24.98705131 -5.17271787 -9.97437226 -5.28429509 0 0 Z " fill="#6D6E70" transform="translate(1491,709)"/>
<path d="M0 0 C4.05782409 4.97083451 4.59030969 9.06697827 4.3125 15.421875 C3.56153728 21.61731741 0.46784341 24.83553026 -4.0859375 28.703125 C-9.73518768 32.53078023 -15.38122128 32.72534561 -22 32 C-28.39372315 30.2687765 -32.32378427 27.45862335 -36 22 C-38.67431469 17.1607639 -38.59476179 12.19169199 -37.60546875 6.8828125 C-36.39631346 2.74828151 -34.83991977 0.48360868 -31.25 -1.9375 C-22.20550936 -6.8038292 -8.29541721 -6.52067651 0 0 Z " fill="#6D6E70" transform="translate(745,674)"/>
<path d="M0 0 C1.06009277 0.01027222 1.06009277 0.01027222 2.14160156 0.02075195 C9.28622054 0.24082732 13.57053718 1.75203909 18.5625 7 C22.16132385 12.61416521 21.71228519 18.98529925 21.125 25.4375 C20.11196018 28.11052091 19.10850798 29.28397705 17.125 31.4375 C16.691875 32.015 16.25875 32.5925 15.8125 33.1875 C10.23646881 37.31789347 2.72380782 36.99948638 -3.875 36.4375 C-10.13395358 35.44829757 -14.94723936 33.72836233 -18.8125 28.5234375 C-21.14911524 23.936112 -21.47051026 19.19413621 -20.390625 14.1953125 C-18.59574477 8.91038738 -16.08714468 4.78373871 -11.23046875 1.828125 C-7.39798491 0.23980807 -4.08297597 -0.06038476 0 0 Z " fill="#6D6E70" transform="translate(1612.875,842.5625)"/>
<path d="M0 0 C0.67740234 -0.01160156 1.35480469 -0.02320313 2.05273438 -0.03515625 C7.70499072 -0.00264087 12.44744158 1.12346988 16.8046875 4.875 C21.7533684 11.42773608 21.74791182 17.36243929 21.0625 25.375 C19.80895349 29.60124251 17.84140058 31.88818714 14.0625 34.25 C4.84259735 37.70746349 -4.90264485 37.38686709 -13.9375 33.375 C-17.90484229 30.64745218 -19.23912779 28.17554397 -20.375 23.625 C-21.26655204 17.86420222 -20.87118199 12.69195263 -17.89453125 7.5859375 C-13.16686265 1.37417875 -7.48713469 -0.12750087 0 0 Z " fill="#6D6E70" transform="translate(889.9375,842.625)"/>
<path d="M0 0 C4.37460411 3.94726489 5.18461122 8.1123724 5.57421875 13.8125 C5.46921396 18.72522399 4.24606262 22.4574506 0.93359375 26.12890625 C-4.86453654 31.37001092 -9.94822357 32.80715101 -17.703125 32.609375 C-24.20642346 32.05142675 -28.01396898 30.2306797 -32.41796875 25.37109375 C-37.06222732 19.78528846 -37.03475967 14.40554936 -36.48046875 7.37109375 C-34.84532303 2.63777718 -32.76053701 -0.02364731 -28.48046875 -2.62890625 C-19.45695139 -6.12127175 -7.89342742 -5.86606291 0 0 Z " fill="#6D6E70" transform="translate(797.48046875,673.62890625)"/>
<path d="M0 0 C0.70672852 0.00757324 1.41345703 0.01514648 2.14160156 0.02294922 C7.5619903 0.19429053 11.95436273 0.83908736 16.125 4.4375 C21.01498403 10.58132609 21.76227752 15.81334351 21.125 23.4375 C19.91792719 28.47489047 17.55505753 31.71905561 13.125 34.4375 C5.09134886 37.65096046 -3.88741507 37.51532799 -11.93359375 34.40625 C-16.5180664 32.11862582 -18.44839928 29.51327573 -20.3125 24.8125 C-21.45426059 19.01586932 -20.65168025 12.72469118 -17.83203125 7.5078125 C-13.18583186 1.46324242 -7.312211 -0.10900835 0 0 Z " fill="#6D6E70" transform="translate(1665.875,842.5625)"/>
<path d="M0 0 C4.3853115 2.72024841 6.63995493 6.54486478 8.25 11.375 C8.75849203 17.60402738 8.98444209 23.09527152 5.25 28.375 C0.24759297 33.37740703 -5.2445146 34.46647882 -12.125 34.6875 C-18.98549169 34.53671996 -24.42596684 33.3116943 -29.75 28.875 C-34.02934957 23.52581304 -33.29492969 16.91415633 -32.75 10.375 C-31.5761141 6.09816729 -28.92353948 3.17178706 -25.5 0.4375 C-18.54799193 -3.50894067 -7.21657529 -3.2149029 0 0 Z " fill="#6D6E70" transform="translate(955.75,844.625)"/>
<path d="M0 0 C2.75133849 4.58556415 3.20843042 8.97273772 2.24609375 14.21875 C0.42228504 20.47180842 -2.54323198 23.80478069 -7.8125 27.625 C-14.44877096 29.87659193 -22.25062976 30.15530616 -28.75 27.25 C-33.6222288 24.35969478 -37.51744864 20.19765408 -39.3125 14.8125 C-40.0040289 7.69315326 -39.83892002 2.49954054 -35.3125 -3.1875 C-24.83186323 -11.86387525 -9.20733432 -8.70964057 0 0 Z " fill="#6D6E70" transform="translate(773.3125,638.1875)"/>
<path d="M0 0 C3.74876715 2.66739201 6.19631145 5.2051229 8.25 9.3125 C8.77736173 15.51914192 9.01247482 21.09358332 5.25 26.3125 C0.16473893 31.64175087 -4.60798513 34.30201409 -12.0625 34.625 C-17.77437931 34.45191275 -23.23012571 33.54710551 -27.61328125 29.66015625 C-32.28062802 24.39128984 -33.12099001 20.1448589 -33.01953125 13.171875 C-32.54248489 8.11103532 -31.01455464 4.41615207 -27.265625 0.93359375 C-20.1585652 -3.57907475 -7.53258297 -3.46895268 0 0 Z " fill="#6D6E70" transform="translate(2252.75,669.6875)"/>
<path d="M0 0 C3.74876715 2.66739201 6.19631145 5.2051229 8.25 9.3125 C8.77736173 15.51914192 9.01247482 21.09358332 5.25 26.3125 C0.16473893 31.64175087 -4.60798513 34.30201409 -12.0625 34.625 C-17.77386201 34.45192842 -23.19497431 33.53006946 -27.61328125 29.6953125 C-32.36430447 24.41135827 -33.13334012 19.92882724 -33.01953125 12.9140625 C-32.51169587 8.01234713 -30.89235191 4.30826994 -27.265625 0.9296875 C-20.14933927 -3.57309506 -7.53770314 -3.47131066 0 0 Z " fill="#6D6E70" transform="translate(2305.75,669.6875)"/>
</svg>
