<?xml version="1.0" standalone="no"?>
<!DOCTYPE svg PUBLIC "-//W3C//DTD SVG 20010904//EN"
 "http://www.w3.org/TR/2001/REC-SVG-20010904/DTD/svg10.dtd">
<svg version="1.0" xmlns="http://www.w3.org/2000/svg"
 width="809.000000pt" height="726.000000pt" viewBox="0 0 809.000000 726.000000"
 preserveAspectRatio="xMidYMid meet">

<g transform="translate(0.000000,726.000000) scale(0.100000,-0.100000)"
fill="#000000" stroke="none">
<path d="M1477 5874 c-4 -4 -7 -111 -7 -238 l0 -231 258 -368 257 -367 5 367
5 368 1105 3 c1152 3 1350 -2 1518 -38 549 -117 1000 -507 1197 -1035 126
-338 133 -718 19 -1070 -38 -118 -145 -327 -221 -435 -87 -122 -262 -297 -383
-382 -244 -172 -515 -271 -817 -298 -76 -7 -523 -10 -1268 -8 l-1150 3 -5 366
-5 366 -257 -368 -258 -367 0 -236 0 -236 1424 0 c892 0 1471 4 1552 10 428
35 852 206 1173 474 168 140 342 340 453 519 61 97 155 291 193 397 136 382
157 832 55 1224 -197 764 -812 1358 -1580 1530 -228 50 -185 49 -1765 53 -820
2 -1494 1 -1498 -3z"/>
<path d="M2220 4572 l0 -238 188 -268 187 -268 3 271 2 271 878 0 c973 0 944
1 1073 -66 139 -73 258 -230 289 -381 18 -84 8 -233 -21 -310 -49 -132 -159
-255 -283 -316 -119 -58 -92 -57 -1053 -57 l-883 0 -2 269 -3 270 -187 -268
-188 -269 0 -236 0 -236 1123 2 1122 3 78 22 c408 116 698 436 768 847 17 101
7 311 -20 416 -102 391 -422 689 -824 765 -68 13 -238 15 -1163 15 l-1084 0 0
-238z"/>
</g>
</svg>
